M48
; DRILL file KiCad 10.0.3 date 2026-06-12T10:33:39
; FORMAT={-:-/ absolute / metric / decimal}
; #@! TF.CreationDate,2026-06-12T10:33:39-05:00
; #@! TF.GenerationSoftware,Kicad,Pcbnew,10.0.3
; #@! TF.FileFunction,Plated,1,2,PTH
FMAT,2
METRIC
; #@! TA.AperFunction,Plated,PTH,ViaDrill
T1C0.300
; #@! TA.AperFunction,Plated,PTH,ComponentDrill
T2C0.300
; #@! TA.AperFunction,Plated,PTH,ComponentDrill
T3C1.300
%
G90
G05
T1
X109.89Y-91.11
X111.9Y-91.15
X116.77Y-109.57
X116.78Y-106.1
X117.95Y-97.75
X118.23Y-100.34
X119.855Y-97.903
X119.863Y-95.393
X120.45Y-94.85
X120.77Y-88.1
X121.87Y-93.26
X122.25Y-82.56
X122.57Y-100.33
X123.12Y-99.11
X124.88Y-106.08
X124.93Y-109.55
X125.38Y-87.51
X126.0Y-95.85
X128.75Y-84.49
X130.7Y-96.55
X130.7Y-98.7
X130.8Y-109.177
X131.97Y-91.81
X131.97Y-94.14
X132.75Y-88.51
X133.15Y-109.167
X142.57Y-111.48
X142.58Y-108.18
X143.32Y-92.17
X144.55Y-96.3
X153.26Y-90.975
X154.05Y-96.05
X154.25Y-98.45
X155.88Y-85.56
X156.051Y-99.011
X157.51Y-108.11
X157.51Y-111.38
X158.35Y-99.37
X158.64Y-103.68
X158.69Y-105.86
X159.06Y-101.36
X159.76Y-89.62
X162.13Y-87.47
X163.825Y-94.86
X165.24Y-91.51
X176.5Y-96.35
X183.617Y-91.11
X187.65Y-86.05
X192.13Y-90.63
X193.67Y-87.97
X199.31Y-101.91
X202.02Y-97.35
T2
X121.9Y-89.45
X121.9Y-90.358
X122.166Y-91.266
X122.725Y-92.766
X122.725Y-93.85
X123.125Y-89.45
X123.125Y-90.358
X123.125Y-91.266
X124.037Y-92.766
X124.037Y-93.85
X125.35Y-92.766
X125.35Y-93.85
X154.15Y-92.2
X154.15Y-93.108
X154.416Y-94.016
X154.975Y-95.516
X154.975Y-96.6
X155.375Y-92.2
X155.375Y-93.108
X155.375Y-94.016
X156.287Y-95.516
X156.287Y-96.6
X157.6Y-95.516
X157.6Y-96.6
T3
X99.0Y-94.5
X99.0Y-99.58
X108.92Y-73.0
X114.0Y-73.0
X138.72Y-73.0
X143.8Y-73.0
X168.59Y-73.0
X173.67Y-73.0
X176.5Y-115.0
X181.58Y-115.0
X188.5Y-115.0
X193.58Y-115.0
X197.8Y-73.0
X200.5Y-115.0
X202.88Y-73.0
X205.58Y-115.0
M30
