%TF.GenerationSoftware,KiCad,Pcbnew,10.0.3*%
%TF.CreationDate,2026-06-12T10:30:31-05:00*%
%TF.ProjectId,power_distribution_board_pcb_v2,706f7765-725f-4646-9973-747269627574,rev?*%
%TF.SameCoordinates,Original*%
%TF.FileFunction,Copper,L1,Top*%
%TF.FilePolarity,Positive*%
%FSLAX46Y46*%
G04 Gerber Fmt 4.6, Leading zero omitted, Abs format (unit mm)*
G04 Created by KiCad (PCBNEW 10.0.3) date 2026-06-12 10:30:31*
%MOMM*%
%LPD*%
G01*
G04 APERTURE LIST*
G04 Aperture macros list*
%AMRoundRect*
0 Rectangle with rounded corners*
0 $1 Rounding radius*
0 $2 $3 $4 $5 $6 $7 $8 $9 X,Y pos of 4 corners*
0 Add a 4 corners polygon primitive as box body*
4,1,4,$2,$3,$4,$5,$6,$7,$8,$9,$2,$3,0*
0 Add four circle primitives for the rounded corners*
1,1,$1+$1,$2,$3*
1,1,$1+$1,$4,$5*
1,1,$1+$1,$6,$7*
1,1,$1+$1,$8,$9*
0 Add four rect primitives between the rounded corners*
20,1,$1+$1,$2,$3,$4,$5,0*
20,1,$1+$1,$4,$5,$6,$7,0*
20,1,$1+$1,$6,$7,$8,$9,0*
20,1,$1+$1,$8,$9,$2,$3,0*%
%AMFreePoly0*
4,1,17,2.461001,1.019998,2.511003,0.970000,2.511001,-1.716002,2.391001,-1.836004,1.032002,-1.836001,0.912002,-1.716002,0.912000,-1.609002,0.862002,-1.559002,0.766001,-1.559002,0.646001,-1.439002,0.646001,-0.745000,0.596001,-0.695000,-0.083998,-0.695000,-0.204000,-0.575003,-0.204000,0.969998,-0.154000,1.020000,2.461001,1.019998,2.461001,1.019998,$1*%
%AMFreePoly1*
4,1,9,0.216000,1.304501,0.216000,-0.564502,0.100501,-0.680001,-3.133504,-0.680001,-3.249002,-0.564502,-3.249002,1.304501,-3.133504,1.420000,0.100501,1.420000,0.216000,1.304501,0.216000,1.304501,$1*%
G04 Aperture macros list end*
%TA.AperFunction,SMDPad,CuDef*%
%ADD10RoundRect,0.250000X-0.350000X-0.450000X0.350000X-0.450000X0.350000X0.450000X-0.350000X0.450000X0*%
%TD*%
%TA.AperFunction,SMDPad,CuDef*%
%ADD11RoundRect,0.250000X-0.412500X-1.100000X0.412500X-1.100000X0.412500X1.100000X-0.412500X1.100000X0*%
%TD*%
%TA.AperFunction,SMDPad,CuDef*%
%ADD12RoundRect,0.250000X-0.337500X-0.475000X0.337500X-0.475000X0.337500X0.475000X-0.337500X0.475000X0*%
%TD*%
%TA.AperFunction,SMDPad,CuDef*%
%ADD13RoundRect,0.250000X0.350000X0.450000X-0.350000X0.450000X-0.350000X-0.450000X0.350000X-0.450000X0*%
%TD*%
%TA.AperFunction,SMDPad,CuDef*%
%ADD14RoundRect,0.250000X0.412500X1.100000X-0.412500X1.100000X-0.412500X-1.100000X0.412500X-1.100000X0*%
%TD*%
%TA.AperFunction,ComponentPad*%
%ADD15RoundRect,0.250000X1.050000X1.050000X-1.050000X1.050000X-1.050000X-1.050000X1.050000X-1.050000X0*%
%TD*%
%TA.AperFunction,ComponentPad*%
%ADD16C,2.600000*%
%TD*%
%TA.AperFunction,ComponentPad*%
%ADD17C,0.550000*%
%TD*%
%TA.AperFunction,SMDPad,CuDef*%
%ADD18FreePoly0,0.000000*%
%TD*%
%TA.AperFunction,SMDPad,CuDef*%
%ADD19R,0.267000X0.249999*%
%TD*%
%TA.AperFunction,SMDPad,CuDef*%
%ADD20R,0.599999X0.249999*%
%TD*%
%TA.AperFunction,SMDPad,CuDef*%
%ADD21R,0.249999X0.599999*%
%TD*%
%TA.AperFunction,SMDPad,CuDef*%
%ADD22FreePoly1,0.000000*%
%TD*%
%TA.AperFunction,SMDPad,CuDef*%
%ADD23R,0.292999X0.249999*%
%TD*%
%TA.AperFunction,SMDPad,CuDef*%
%ADD24R,0.249999X0.258000*%
%TD*%
%TA.AperFunction,SMDPad,CuDef*%
%ADD25R,3.125000X1.584000*%
%TD*%
%TA.AperFunction,SMDPad,CuDef*%
%ADD26R,0.965200X3.302000*%
%TD*%
%TA.AperFunction,SMDPad,CuDef*%
%ADD27RoundRect,0.250000X-0.450000X0.350000X-0.450000X-0.350000X0.450000X-0.350000X0.450000X0.350000X0*%
%TD*%
%TA.AperFunction,ComponentPad*%
%ADD28RoundRect,0.250000X-1.050000X-1.050000X1.050000X-1.050000X1.050000X1.050000X-1.050000X1.050000X0*%
%TD*%
%TA.AperFunction,SMDPad,CuDef*%
%ADD29RoundRect,0.250000X0.337500X0.475000X-0.337500X0.475000X-0.337500X-0.475000X0.337500X-0.475000X0*%
%TD*%
%TA.AperFunction,SMDPad,CuDef*%
%ADD30RoundRect,0.250000X0.450000X-0.350000X0.450000X0.350000X-0.450000X0.350000X-0.450000X-0.350000X0*%
%TD*%
%TA.AperFunction,SMDPad,CuDef*%
%ADD31RoundRect,0.237500X-0.287500X-0.237500X0.287500X-0.237500X0.287500X0.237500X-0.287500X0.237500X0*%
%TD*%
%TA.AperFunction,ComponentPad*%
%ADD32RoundRect,0.250000X-1.050000X1.050000X-1.050000X-1.050000X1.050000X-1.050000X1.050000X1.050000X0*%
%TD*%
%TA.AperFunction,SMDPad,CuDef*%
%ADD33RoundRect,0.050000X-0.275000X-0.050000X0.275000X-0.050000X0.275000X0.050000X-0.275000X0.050000X0*%
%TD*%
%TA.AperFunction,SMDPad,CuDef*%
%ADD34RoundRect,0.050000X-0.450000X-0.050000X0.450000X-0.050000X0.450000X0.050000X-0.450000X0.050000X0*%
%TD*%
%TA.AperFunction,SMDPad,CuDef*%
%ADD35RoundRect,0.062500X-0.062500X-0.212500X0.062500X-0.212500X0.062500X0.212500X-0.062500X0.212500X0*%
%TD*%
%TA.AperFunction,ViaPad*%
%ADD36C,0.600000*%
%TD*%
%TA.AperFunction,ViaPad*%
%ADD37C,0.500000*%
%TD*%
%TA.AperFunction,ViaPad*%
%ADD38C,0.800000*%
%TD*%
%TA.AperFunction,Conductor*%
%ADD39C,0.200000*%
%TD*%
%TA.AperFunction,Conductor*%
%ADD40C,2.000000*%
%TD*%
%TA.AperFunction,Conductor*%
%ADD41C,2.500000*%
%TD*%
%TA.AperFunction,Conductor*%
%ADD42C,1.500000*%
%TD*%
%TA.AperFunction,Conductor*%
%ADD43C,1.000000*%
%TD*%
%TA.AperFunction,Conductor*%
%ADD44C,0.800000*%
%TD*%
%TA.AperFunction,Conductor*%
%ADD45C,1.300000*%
%TD*%
%TA.AperFunction,Conductor*%
%ADD46C,0.400000*%
%TD*%
%TA.AperFunction,Conductor*%
%ADD47C,0.500000*%
%TD*%
%TA.AperFunction,Conductor*%
%ADD48C,0.350000*%
%TD*%
%TA.AperFunction,Conductor*%
%ADD49C,0.300000*%
%TD*%
%TA.AperFunction,Conductor*%
%ADD50C,0.340000*%
%TD*%
%TA.AperFunction,Conductor*%
%ADD51C,0.250000*%
%TD*%
G04 APERTURE END LIST*
D10*
%TO.P,REN4,1*%
%TO.N,/EN_UVLO*%
X144560000Y-94920000D03*
%TO.P,REN4,2*%
%TO.N,+48V*%
X146560000Y-94920000D03*
%TD*%
D11*
%TO.P,CF2,1*%
%TO.N,Net-(CF1-Pad2)*%
X194940000Y-101890000D03*
%TO.P,CF2,2*%
%TO.N,GND*%
X198065000Y-101890000D03*
%TD*%
D12*
%TO.P,CCOMP2,1*%
%TO.N,GND*%
X159812500Y-103650000D03*
%TO.P,CCOMP2,2*%
%TO.N,Net-(CCOMP2-Pad2)*%
X161887500Y-103650000D03*
%TD*%
D13*
%TO.P,R4,1*%
%TO.N,/FB_5V*%
X161920000Y-101420000D03*
%TO.P,R4,2*%
%TO.N,GND*%
X159920000Y-101420000D03*
%TD*%
D12*
%TO.P,CVDDA1,1*%
%TO.N,/VDDA_12V*%
X128712500Y-94150000D03*
%TO.P,CVDDA1,2*%
%TO.N,GND*%
X130787500Y-94150000D03*
%TD*%
%TO.P,COUT11,1*%
%TO.N,Net-(COUT10-Pad2)*%
X198765000Y-97260000D03*
%TO.P,COUT11,2*%
%TO.N,GND*%
X200840000Y-97260000D03*
%TD*%
%TO.P,CBOOT1,1*%
%TO.N,Net-(U1-CBOOT)*%
X117540000Y-91710000D03*
%TO.P,CBOOT1,2*%
%TO.N,Net-(U1-SW1)*%
X119615000Y-91710000D03*
%TD*%
D14*
%TO.P,CIN4,1*%
%TO.N,GND*%
X131500000Y-88500000D03*
%TO.P,CIN4,2*%
%TO.N,+48V*%
X128375000Y-88500000D03*
%TD*%
D10*
%TO.P,R7,1*%
%TO.N,Net-(U3-FB)*%
X189485000Y-89340000D03*
%TO.P,R7,2*%
%TO.N,GND*%
X191485000Y-89340000D03*
%TD*%
D15*
%TO.P,ESC_Connector4,1,Pin_1_1*%
%TO.N,+48V*%
X114000000Y-73000000D03*
D16*
%TO.P,ESC_Connector4,2,Pin_2_2*%
%TO.N,GND*%
X108920000Y-73000000D03*
%TD*%
D11*
%TO.P,COUT2,1*%
%TO.N,/12V_BUS*%
X112398800Y-109560000D03*
%TO.P,COUT2,2*%
%TO.N,GND*%
X115523800Y-109560000D03*
%TD*%
D17*
%TO.P,U2,*%
%TO.N,+48V*%
X155375000Y-92200000D03*
D18*
%TO.P,U2,1,VIN4_1*%
X153183999Y-92499999D03*
D19*
%TO.P,U2,2,VIN5_2*%
X153183999Y-93000001D03*
D20*
%TO.P,U2,3,VIN6_3*%
X153350001Y-93500000D03*
%TO.P,U2,4,CBOOT_4*%
%TO.N,Net-(U2-CBOOT)*%
X153350001Y-94500000D03*
%TO.P,U2,5,SW4_5*%
%TO.N,Net-(U2-SW1)*%
X153350001Y-95000000D03*
%TO.P,U2,6,BIAS_6*%
%TO.N,/5V_BUS*%
X153350001Y-96000000D03*
%TO.P,U2,7,PG_SYNCOUT_7*%
%TO.N,unconnected-(U2-PG_SYNCOUT-Pad7)*%
X153350001Y-96499999D03*
%TO.P,U2,8,PFM_SYNCIN_8*%
%TO.N,GND*%
X153350001Y-97000001D03*
D21*
%TO.P,U2,9,EN_UVLO_9*%
%TO.N,/EN_UVLO*%
X154249999Y-97649999D03*
%TO.P,U2,10,NC_10*%
%TO.N,unconnected-(U2-NC-Pad10)*%
X154750000Y-97649999D03*
%TO.P,U2,11,ISNS+_11*%
%TO.N,Net-(U2-ISNS+)*%
X155249999Y-97649999D03*
%TO.P,U2,12,VOUT_12*%
%TO.N,/5V_BUS*%
X156250000Y-97649999D03*
%TO.P,U2,13,CONFIG_13*%
%TO.N,/CONFIG*%
X156749999Y-97649999D03*
%TO.P,U2,14,RT_14*%
%TO.N,/RT*%
X157250001Y-97649999D03*
%TO.P,U2,15,EXTCOMP_15*%
%TO.N,/EXTCOMP*%
X157750000Y-97649999D03*
%TO.P,U2,16,FB_16*%
%TO.N,/FB_5V*%
X158250001Y-97649999D03*
D20*
%TO.P,U2,17,AGND_17*%
%TO.N,GND*%
X159149999Y-96499999D03*
%TO.P,U2,18,VDDA_18*%
%TO.N,/VDDA*%
X159149999Y-96000000D03*
%TO.P,U2,19,VCC_19*%
%TO.N,Net-(U2-VCC)*%
X159149999Y-95500001D03*
D22*
%TO.P,U2,20,SW1_20*%
%TO.N,Net-(U2-SW1)*%
X159303999Y-93999999D03*
D23*
%TO.P,U2,21,SW2_21*%
X159303999Y-93500000D03*
%TO.P,U2,22,SW3_22*%
X159303999Y-93000001D03*
D21*
%TO.P,U2,23,PGND1_23*%
%TO.N,GND*%
X158250001Y-91850001D03*
%TO.P,U2,24,PGND2_24*%
X157750000Y-91850001D03*
%TO.P,U2,25,PGND3_25*%
X157250001Y-91850001D03*
%TO.P,U2,26,PGND4_26*%
X156749999Y-91850001D03*
D24*
%TO.P,U2,27,VIN1_27*%
%TO.N,+48V*%
X155249999Y-91679000D03*
%TO.P,U2,28,VIN2_28*%
X154750000Y-91679000D03*
%TO.P,U2,29,VIN3_29*%
X154249999Y-91679000D03*
D25*
%TO.P,U2,30,PGND_30*%
%TO.N,GND*%
X156287000Y-96058001D03*
D17*
%TO.P,U2,31*%
X157600000Y-95516000D03*
%TO.P,U2,32*%
X157600000Y-96599999D03*
%TO.P,U2,33*%
X156287000Y-95516000D03*
%TO.P,U2,34*%
X156287000Y-96599999D03*
%TO.P,U2,35*%
X154974999Y-95516000D03*
%TO.P,U2,36*%
X154974999Y-96599999D03*
%TO.P,U2,37*%
%TO.N,+48V*%
X154149999Y-92200000D03*
%TO.P,U2,38*%
X154149999Y-93107999D03*
%TO.P,U2,39*%
X154416001Y-94016001D03*
%TO.P,U2,40*%
X155375000Y-94016001D03*
%TO.P,U2,41*%
X155375000Y-93107999D03*
%TD*%
D11*
%TO.P,CIN3,1*%
%TO.N,+48V*%
X124375000Y-84500000D03*
%TO.P,CIN3,2*%
%TO.N,GND*%
X127500000Y-84500000D03*
%TD*%
D14*
%TO.P,COUT6,1*%
%TO.N,/5V_BUS*%
X146950000Y-111500000D03*
%TO.P,COUT6,2*%
%TO.N,GND*%
X143825000Y-111500000D03*
%TD*%
D26*
%TO.P,Lo1,1,1_1*%
%TO.N,Net-(Lo1-Pad1)*%
X113357600Y-98500000D03*
%TO.P,Lo1,2,2_2*%
%TO.N,Net-(U1-ISNS+)*%
X116050000Y-98500000D03*
%TD*%
D12*
%TO.P,C_NR/SS1,1*%
%TO.N,GND*%
X193665000Y-89290000D03*
%TO.P,C_NR/SS1,2*%
%TO.N,/NR{slash}SS*%
X195740000Y-89290000D03*
%TD*%
D10*
%TO.P,R1,1*%
%TO.N,/12V_BUS*%
X118750000Y-96900000D03*
%TO.P,R1,2*%
%TO.N,/FB_12V*%
X120750000Y-96900000D03*
%TD*%
D27*
%TO.P,RRT2,1*%
%TO.N,/RT*%
X156430000Y-101880000D03*
%TO.P,RRT2,2*%
%TO.N,/AGND*%
X156430000Y-103880000D03*
%TD*%
D12*
%TO.P,CBOOT2,1*%
%TO.N,Net-(U2-CBOOT)*%
X149750000Y-94720000D03*
%TO.P,CBOOT2,2*%
%TO.N,Net-(U2-SW1)*%
X151825000Y-94720000D03*
%TD*%
%TO.P,CVCC2,1*%
%TO.N,Net-(U2-VCC)*%
X160550000Y-94850000D03*
%TO.P,CVCC2,2*%
%TO.N,GND*%
X162625000Y-94850000D03*
%TD*%
D27*
%TO.P,RCNFG1,1*%
%TO.N,/CONFIG_12V*%
X130800000Y-105987500D03*
%TO.P,RCNFG1,2*%
%TO.N,GND*%
X130800000Y-107987500D03*
%TD*%
D28*
%TO.P,5V_Connector1,1,Pin_1_1*%
%TO.N,/5V_BUS*%
X188500000Y-115000000D03*
D16*
%TO.P,5V_Connector1,2,Pin_2_2*%
%TO.N,GND*%
X193580000Y-115000000D03*
%TD*%
D11*
%TO.P,COUT8,1*%
%TO.N,/5V_BUS*%
X153125000Y-108110000D03*
%TO.P,COUT8,2*%
%TO.N,GND*%
X156250000Y-108110000D03*
%TD*%
D15*
%TO.P,ESC_Connector3,1,Pin_1_1*%
%TO.N,+48V*%
X143800000Y-73000000D03*
D16*
%TO.P,ESC_Connector3,2,Pin_2_2*%
%TO.N,GND*%
X138720000Y-73000000D03*
%TD*%
D10*
%TO.P,R8,1*%
%TO.N,/3.3V_BUS*%
X189465000Y-87260000D03*
%TO.P,R8,2*%
%TO.N,Net-(U3-FB)*%
X191465000Y-87260000D03*
%TD*%
D11*
%TO.P,CF1,1*%
%TO.N,/3.3V_BUS*%
X189890000Y-101885000D03*
%TO.P,CF1,2*%
%TO.N,Net-(CF1-Pad2)*%
X193015000Y-101885000D03*
%TD*%
D10*
%TO.P,R5,1*%
%TO.N,Net-(U3-S-CONF)*%
X185660000Y-87260000D03*
%TO.P,R5,2*%
%TO.N,GND*%
X187660000Y-87260000D03*
%TD*%
D26*
%TO.P,L1,1,1_1*%
%TO.N,Net-(U3-SW)*%
X184750100Y-97070000D03*
%TO.P,L1,2,2_2*%
%TO.N,Net-(U3-VO)*%
X187442500Y-97070000D03*
%TD*%
D11*
%TO.P,COUT7,1*%
%TO.N,/5V_BUS*%
X153125000Y-111400000D03*
%TO.P,COUT7,2*%
%TO.N,GND*%
X156250000Y-111400000D03*
%TD*%
D10*
%TO.P,RS1,1*%
%TO.N,Net-(U1-ISNS+)*%
X117053800Y-103450000D03*
%TO.P,RS1,2*%
%TO.N,/12V_BUS*%
X119053800Y-103450000D03*
%TD*%
%TO.P,REN3,1*%
%TO.N,GND*%
X144510000Y-92180000D03*
%TO.P,REN3,2*%
%TO.N,+48V*%
X146510000Y-92180000D03*
%TD*%
D12*
%TO.P,CHF1,1*%
%TO.N,GND*%
X131875000Y-98720000D03*
%TO.P,CHF1,2*%
%TO.N,/EXTCOMP_12V*%
X133950000Y-98720000D03*
%TD*%
D14*
%TO.P,CIN6,1*%
%TO.N,GND*%
X160875000Y-87500000D03*
%TO.P,CIN6,2*%
%TO.N,+48V*%
X157750000Y-87500000D03*
%TD*%
D12*
%TO.P,CVDDA2,1*%
%TO.N,/VDDA*%
X160525000Y-96950000D03*
%TO.P,CVDDA2,2*%
%TO.N,/AGND*%
X162600000Y-96950000D03*
%TD*%
D28*
%TO.P,3.3V_Connector1,1,Pin_1_1*%
%TO.N,/3.3V_BUS*%
X200500000Y-115000000D03*
D16*
%TO.P,3.3V_Connector1,2,Pin_2_2*%
%TO.N,GND*%
X205580000Y-115000000D03*
%TD*%
D11*
%TO.P,COUT3,1*%
%TO.N,/12V_BUS*%
X120561300Y-109560000D03*
%TO.P,COUT3,2*%
%TO.N,GND*%
X123686300Y-109560000D03*
%TD*%
%TO.P,CIN5,1*%
%TO.N,+48V*%
X160875000Y-91500000D03*
%TO.P,CIN5,2*%
%TO.N,GND*%
X164000000Y-91500000D03*
%TD*%
%TO.P,COUT1,1*%
%TO.N,/12V_BUS*%
X112398800Y-106060000D03*
%TO.P,COUT1,2*%
%TO.N,GND*%
X115523800Y-106060000D03*
%TD*%
D10*
%TO.P,R6,1*%
%TO.N,Net-(U3-PG)*%
X193675000Y-91460000D03*
%TO.P,R6,2*%
%TO.N,/3.3V_BUS*%
X195675000Y-91460000D03*
%TD*%
D27*
%TO.P,RRT1,1*%
%TO.N,/RT_12V*%
X133150000Y-105987500D03*
%TO.P,RRT1,2*%
%TO.N,GND*%
X133150000Y-107987500D03*
%TD*%
D12*
%TO.P,CVCC1,1*%
%TO.N,Net-(U1-VCC)*%
X128725000Y-91800000D03*
%TO.P,CVCC1,2*%
%TO.N,GND*%
X130800000Y-91800000D03*
%TD*%
D28*
%TO.P,12V_Connector1,1,Pin_1_1*%
%TO.N,/12V_BUS*%
X176500000Y-115000000D03*
D16*
%TO.P,12V_Connector1,2,Pin_2_2*%
%TO.N,GND*%
X181580000Y-115000000D03*
%TD*%
D12*
%TO.P,CCOMP1,1*%
%TO.N,GND*%
X131875000Y-96520000D03*
%TO.P,CCOMP1,2*%
%TO.N,Net-(CCOMP1-Pad2)*%
X133950000Y-96520000D03*
%TD*%
D29*
%TO.P,C1,1*%
%TO.N,/12V_BUS*%
X186867500Y-91460000D03*
%TO.P,C1,2*%
%TO.N,GND*%
X184792500Y-91460000D03*
%TD*%
D10*
%TO.P,RBOOT2,1*%
%TO.N,Net-(U2-SW1)*%
X149860000Y-96890000D03*
%TO.P,RBOOT2,2*%
%TO.N,Net-(Lo2-Pad1)*%
X151860000Y-96890000D03*
%TD*%
D11*
%TO.P,COUT4,1*%
%TO.N,/12V_BUS*%
X120523800Y-106060000D03*
%TO.P,COUT4,2*%
%TO.N,GND*%
X123648800Y-106060000D03*
%TD*%
D15*
%TO.P,ESC_Connector2,1,Pin_1_1*%
%TO.N,+48V*%
X173670000Y-73000000D03*
D16*
%TO.P,ESC_Connector2,2,Pin_2_2*%
%TO.N,GND*%
X168590000Y-73000000D03*
%TD*%
D10*
%TO.P,RCOMP2,1*%
%TO.N,Net-(CCOMP2-Pad2)*%
X164050000Y-103550000D03*
%TO.P,RCOMP2,2*%
%TO.N,/EXTCOMP*%
X166050000Y-103550000D03*
%TD*%
D12*
%TO.P,COUT9,1*%
%TO.N,Net-(U3-VO)*%
X190965000Y-97260000D03*
%TO.P,COUT9,2*%
%TO.N,Net-(COUT10-Pad1)*%
X193040000Y-97260000D03*
%TD*%
%TO.P,C_IN-HF1,1*%
%TO.N,+48V*%
X122175000Y-87500000D03*
%TO.P,C_IN-HF1,2*%
%TO.N,GND*%
X124250000Y-87500000D03*
%TD*%
D18*
%TO.P,U1,1,VIN4_1*%
%TO.N,+48V*%
X120933999Y-89749999D03*
D19*
%TO.P,U1,2,VIN5_2*%
X120933999Y-90250001D03*
D20*
%TO.P,U1,3,VIN6_3*%
X121100001Y-90750000D03*
%TO.P,U1,4,CBOOT_4*%
%TO.N,Net-(U1-CBOOT)*%
X121100001Y-91750000D03*
%TO.P,U1,5,SW4_5*%
%TO.N,Net-(U1-SW1)*%
X121100001Y-92250000D03*
%TO.P,U1,6,BIAS_6*%
%TO.N,/12V_BUS*%
X121100001Y-93250000D03*
%TO.P,U1,7,PG_SYNCOUT_7*%
%TO.N,unconnected-(U1-PG_SYNCOUT-Pad7)*%
X121100001Y-93749999D03*
%TO.P,U1,8,PFM_SYNCIN_8*%
%TO.N,GND*%
X121100001Y-94250001D03*
D21*
%TO.P,U1,9,EN_UVLO_9*%
%TO.N,/EN_UVLO_12V*%
X121999999Y-94899999D03*
%TO.P,U1,10,NC_10*%
%TO.N,unconnected-(U1-NC-Pad10)*%
X122500000Y-94899999D03*
%TO.P,U1,11,ISNS+_11*%
%TO.N,Net-(U1-ISNS+)*%
X122999999Y-94899999D03*
%TO.P,U1,12,VOUT_12*%
%TO.N,/12V_BUS*%
X124000000Y-94899999D03*
%TO.P,U1,13,CONFIG_13*%
%TO.N,/CONFIG_12V*%
X124499999Y-94899999D03*
%TO.P,U1,14,RT_14*%
%TO.N,/RT_12V*%
X125000001Y-94899999D03*
%TO.P,U1,15,EXTCOMP_15*%
%TO.N,/EXTCOMP_12V*%
X125500000Y-94899999D03*
%TO.P,U1,16,FB_16*%
%TO.N,/FB_12V*%
X126000001Y-94899999D03*
D20*
%TO.P,U1,17,AGND_17*%
%TO.N,GND*%
X126899999Y-93749999D03*
%TO.P,U1,18,VDDA_18*%
%TO.N,/VDDA_12V*%
X126899999Y-93250000D03*
%TO.P,U1,19,VCC_19*%
%TO.N,Net-(U1-VCC)*%
X126899999Y-92750001D03*
D22*
%TO.P,U1,20,SW1_20*%
%TO.N,Net-(U1-SW1)*%
X127053999Y-91249999D03*
D23*
%TO.P,U1,21,SW2_21*%
X127053999Y-90750000D03*
%TO.P,U1,22,SW3_22*%
X127053999Y-90250001D03*
D21*
%TO.P,U1,23,PGND1_23*%
%TO.N,GND*%
X126000001Y-89100001D03*
%TO.P,U1,24,PGND2_24*%
X125500000Y-89100001D03*
%TO.P,U1,25,PGND3_25*%
X125000001Y-89100001D03*
%TO.P,U1,26,PGND4_26*%
X124499999Y-89100001D03*
D24*
%TO.P,U1,27,VIN1_27*%
%TO.N,+48V*%
X122999999Y-88929000D03*
%TO.P,U1,28,VIN2_28*%
X122500000Y-88929000D03*
%TO.P,U1,29,VIN3_29*%
X121999999Y-88929000D03*
D25*
%TO.P,U1,30,PGND_30*%
%TO.N,GND*%
X124037000Y-93308001D03*
D17*
%TO.P,U1,31*%
X125350000Y-92766000D03*
%TO.P,U1,32*%
X125350000Y-93849999D03*
%TO.P,U1,33*%
X124037000Y-92766000D03*
%TO.P,U1,34*%
X124037000Y-93849999D03*
%TO.P,U1,35*%
X122724999Y-92766000D03*
%TO.P,U1,36*%
X122724999Y-93849999D03*
%TO.P,U1,37*%
%TO.N,+48V*%
X121899999Y-89450000D03*
%TO.P,U1,38*%
X121899999Y-90357999D03*
%TO.P,U1,39*%
X122166001Y-91266001D03*
%TO.P,U1,40*%
X123125000Y-91266001D03*
%TO.P,U1,41*%
X123125000Y-90357999D03*
%TO.P,U1,42*%
X123125000Y-89450000D03*
%TD*%
D12*
%TO.P,COUT10,1*%
%TO.N,Net-(COUT10-Pad1)*%
X194865000Y-97260000D03*
%TO.P,COUT10,2*%
%TO.N,Net-(COUT10-Pad2)*%
X196940000Y-97260000D03*
%TD*%
D14*
%TO.P,CIN8,1*%
%TO.N,GND*%
X152000000Y-91500000D03*
%TO.P,CIN8,2*%
%TO.N,+48V*%
X148875000Y-91500000D03*
%TD*%
D10*
%TO.P,RCOMP1,1*%
%TO.N,Net-(CCOMP1-Pad2)*%
X135800000Y-96500000D03*
%TO.P,RCOMP1,2*%
%TO.N,/EXTCOMP_12V*%
X137800000Y-96500000D03*
%TD*%
D12*
%TO.P,C_IN-HF2,1*%
%TO.N,+48V*%
X156500000Y-90500000D03*
%TO.P,C_IN-HF2,2*%
%TO.N,GND*%
X158575000Y-90500000D03*
%TD*%
D30*
%TO.P,REN2,1*%
%TO.N,GND*%
X109890000Y-89910000D03*
%TO.P,REN2,2*%
%TO.N,+48V*%
X109890000Y-87910000D03*
%TD*%
D10*
%TO.P,RS2,1*%
%TO.N,Net-(U2-ISNS+)*%
X149110000Y-106060000D03*
%TO.P,RS2,2*%
%TO.N,/5V_BUS*%
X151110000Y-106060000D03*
%TD*%
%TO.P,R2,1*%
%TO.N,/FB_12V*%
X119430000Y-100340000D03*
%TO.P,R2,2*%
%TO.N,GND*%
X121430000Y-100340000D03*
%TD*%
%TO.P,RBOOT1,1*%
%TO.N,Net-(U1-SW1)*%
X117590000Y-93710000D03*
%TO.P,RBOOT1,2*%
%TO.N,Net-(Lo1-Pad1)*%
X119590000Y-93710000D03*
%TD*%
D30*
%TO.P,REN1,1*%
%TO.N,/EN_UVLO_12V*%
X111950000Y-89910000D03*
%TO.P,REN1,2*%
%TO.N,+48V*%
X111950000Y-87910000D03*
%TD*%
D12*
%TO.P,CHF2,1*%
%TO.N,GND*%
X159875000Y-105850000D03*
%TO.P,CHF2,2*%
%TO.N,/EXTCOMP*%
X161950000Y-105850000D03*
%TD*%
D26*
%TO.P,Lo2,1,1_1*%
%TO.N,Net-(Lo2-Pad1)*%
X148380000Y-100960000D03*
%TO.P,Lo2,2,2_2*%
%TO.N,Net-(U2-ISNS+)*%
X151072400Y-100960000D03*
%TD*%
D14*
%TO.P,CIN1,1*%
%TO.N,GND*%
X119500000Y-88750000D03*
%TO.P,CIN1,2*%
%TO.N,+48V*%
X116375000Y-88750000D03*
%TD*%
D31*
%TO.P,FB1,1*%
%TO.N,Net-(U3-VO)*%
X194915000Y-99135000D03*
%TO.P,FB1,2*%
%TO.N,/3.3V_BUS*%
X196665000Y-99135000D03*
%TD*%
D14*
%TO.P,COUT5,1*%
%TO.N,/5V_BUS*%
X146960000Y-108150000D03*
%TO.P,COUT5,2*%
%TO.N,GND*%
X143835000Y-108150000D03*
%TD*%
D15*
%TO.P,ESC_Connector1,1,Pin_1_1*%
%TO.N,+48V*%
X202880000Y-73000000D03*
D16*
%TO.P,ESC_Connector1,2,Pin_2_2*%
%TO.N,GND*%
X197800000Y-73000000D03*
%TD*%
D12*
%TO.P,CIN9,1*%
%TO.N,/12V_BUS*%
X181660000Y-89360000D03*
%TO.P,CIN9,2*%
%TO.N,Net-(CIN10-Pad1)*%
X183735000Y-89360000D03*
%TD*%
D14*
%TO.P,CIN2,1*%
%TO.N,GND*%
X122250000Y-84500000D03*
%TO.P,CIN2,2*%
%TO.N,+48V*%
X119125000Y-84500000D03*
%TD*%
D12*
%TO.P,CIN10,1*%
%TO.N,Net-(CIN10-Pad1)*%
X185560000Y-89360000D03*
%TO.P,CIN10,2*%
%TO.N,GND*%
X187635000Y-89360000D03*
%TD*%
D32*
%TO.P,Tether_Connector1,1,Pin_1_1*%
%TO.N,+48V*%
X99000000Y-94500000D03*
D16*
%TO.P,Tether_Connector1,2,Pin_2_2*%
%TO.N,GND*%
X99000000Y-99580000D03*
%TD*%
D33*
%TO.P,U3,1,EN/SYNC_1*%
%TO.N,/12V_BUS*%
X189185000Y-91660000D03*
D34*
%TO.P,U3,2,SW_2*%
%TO.N,Net-(U3-SW)*%
X189360000Y-92160000D03*
D33*
%TO.P,U3,3,VO_3*%
%TO.N,Net-(U3-VO)*%
X189185000Y-92660000D03*
D34*
%TO.P,U3,4,PGND_4*%
%TO.N,GND*%
X190760000Y-92660000D03*
D33*
%TO.P,U3,5,PG_5*%
%TO.N,Net-(U3-PG)*%
X190935000Y-92160000D03*
D34*
%TO.P,U3,6,VIN_6*%
%TO.N,/12V_BUS*%
X190760000Y-91660000D03*
D35*
%TO.P,U3,7,PSNS_7*%
%TO.N,GND*%
X190810000Y-90985000D03*
%TO.P,U3,8,NR/SS_8*%
%TO.N,/NR{slash}SS*%
X190310000Y-90985000D03*
%TO.P,U3,9,FB_9*%
%TO.N,Net-(U3-FB)*%
X189810000Y-90985000D03*
%TO.P,U3,10,S-CONF_10*%
%TO.N,Net-(U3-S-CONF)*%
X189310000Y-90985000D03*
%TD*%
D14*
%TO.P,CIN7,1*%
%TO.N,GND*%
X155875000Y-87500000D03*
%TO.P,CIN7,2*%
%TO.N,+48V*%
X152750000Y-87500000D03*
%TD*%
D10*
%TO.P,R3,1*%
%TO.N,/5V_BUS*%
X159950000Y-99250000D03*
%TO.P,R3,2*%
%TO.N,/FB_5V*%
X161950000Y-99250000D03*
%TD*%
D27*
%TO.P,RCNFG2,1*%
%TO.N,/CONFIG*%
X154030000Y-101880000D03*
%TO.P,RCNFG2,2*%
%TO.N,/AGND*%
X154030000Y-103880000D03*
%TD*%
D36*
%TO.N,/EN_UVLO*%
X154250000Y-98450000D03*
X144550000Y-96300000D03*
%TO.N,GND*%
X153260000Y-90974999D03*
X157510000Y-111380000D03*
X199310000Y-101910000D03*
X116780000Y-106100000D03*
X120770000Y-88100000D03*
X157510000Y-108110000D03*
X159760000Y-89620000D03*
X132750000Y-88510000D03*
X192130000Y-90630000D03*
X163825000Y-94860000D03*
X131970000Y-94140000D03*
X130700000Y-98700000D03*
X133150000Y-109167500D03*
D37*
X122570000Y-100330000D03*
D36*
X143320000Y-92170000D03*
X125380000Y-87510000D03*
X131970000Y-91810000D03*
X142580000Y-108180000D03*
X158690000Y-105860000D03*
X158640000Y-103680000D03*
X142570000Y-111480000D03*
X130700000Y-96550000D03*
D37*
X183617500Y-91110000D03*
X187650000Y-86050000D03*
D36*
X162130000Y-87470000D03*
X165240000Y-91510000D03*
X193670000Y-87970000D03*
X124880000Y-106080000D03*
X116770000Y-109570000D03*
X124930000Y-109550000D03*
X202020000Y-97350000D03*
X155880000Y-85560000D03*
X130800000Y-109177500D03*
X122250000Y-82560000D03*
X159060000Y-101360000D03*
X128750000Y-84490000D03*
X109890000Y-91110000D03*
D37*
%TO.N,/12V_BUS*%
X121870000Y-93260000D03*
D38*
X176500000Y-96350000D03*
D37*
X123120000Y-99110000D03*
D36*
X117950000Y-97750000D03*
D37*
%TO.N,/5V_BUS*%
X154050000Y-96050000D03*
D36*
X158350000Y-99370000D03*
X156050735Y-99010735D03*
D37*
%TO.N,/FB_12V*%
X119855432Y-97903362D03*
D36*
X126000000Y-95850000D03*
X119862719Y-95393235D03*
X118230000Y-100340000D03*
%TO.N,/EN_UVLO_12V*%
X120450000Y-94850000D03*
X111900000Y-91150000D03*
%TD*%
%TO.N,/EN_UVLO*%
D39*
X154250000Y-98450000D02*
X154249999Y-97649999D01*
X144560000Y-94920000D02*
X144560000Y-96290000D01*
X144560000Y-96290000D02*
X144550000Y-96300000D01*
%TO.N,+48V*%
D40*
X146375000Y-83850000D02*
X143800000Y-86425000D01*
D41*
X123280000Y-80740000D02*
X121550000Y-80740000D01*
D42*
X155249999Y-91025003D02*
X155775002Y-90500000D01*
D43*
X122175000Y-87500000D02*
X122175000Y-88753999D01*
X121770000Y-88913998D02*
X121770000Y-87145000D01*
D41*
X124375000Y-81835000D02*
X124375000Y-84500000D01*
D43*
X157750000Y-83730000D02*
X157810000Y-83670000D01*
D39*
X122175000Y-88753999D02*
X122175000Y-89174999D01*
X122175000Y-88753999D02*
X121999999Y-88929000D01*
D44*
X124375000Y-85300000D02*
X122175000Y-87500000D01*
D43*
X157750000Y-87500000D02*
X157750000Y-83730000D01*
D39*
X123280000Y-80740000D02*
X122130000Y-80740000D01*
D41*
X134610000Y-86425000D02*
X131855000Y-83670000D01*
D39*
X107770000Y-83450000D02*
X107780000Y-83460000D01*
D41*
X117437500Y-82812500D02*
X119125000Y-84500000D01*
D43*
X120933999Y-89749999D02*
X121770000Y-88913998D01*
D39*
X122175000Y-89174999D02*
X121899999Y-89450000D01*
D41*
X99150000Y-83450000D02*
X107770000Y-83450000D01*
D40*
X149100000Y-83850000D02*
X146375000Y-83850000D01*
D43*
X165100000Y-87275000D02*
X165100000Y-83670000D01*
D42*
X155775002Y-90500000D02*
X156500000Y-90500000D01*
D41*
X143800000Y-86425000D02*
X134610000Y-86425000D01*
D40*
X165100000Y-83670000D02*
X149280000Y-83670000D01*
X165100000Y-83670000D02*
X173790000Y-83670000D01*
D41*
X114000000Y-73000000D02*
X114000000Y-79375000D01*
D44*
X124375000Y-84500000D02*
X124375000Y-85300000D01*
D39*
X99000000Y-83600000D02*
X99150000Y-83450000D01*
D41*
X152750000Y-87500000D02*
X149100000Y-83850000D01*
D43*
X121770000Y-87145000D02*
X119125000Y-84500000D01*
D40*
X173670000Y-83550000D02*
X173790000Y-83670000D01*
X143800000Y-86425000D02*
X148875000Y-91500000D01*
D39*
X149100000Y-83850000D02*
X149100000Y-83670000D01*
D44*
X157750000Y-89250000D02*
X156500000Y-90500000D01*
D41*
X119510000Y-80740000D02*
X117437500Y-82812500D01*
X99000000Y-94500000D02*
X99000000Y-83600000D01*
D42*
X128375000Y-88500000D02*
X128375000Y-87150000D01*
D41*
X143800000Y-73000000D02*
X143800000Y-86425000D01*
X114000000Y-79375000D02*
X117437500Y-82812500D01*
X123280000Y-80740000D02*
X124375000Y-81835000D01*
D40*
X149280000Y-83670000D02*
X149100000Y-83850000D01*
D42*
X128375000Y-87150000D02*
X131855000Y-83670000D01*
D40*
X173790000Y-83670000D02*
X202880000Y-83670000D01*
D41*
X121550000Y-80740000D02*
X119510000Y-80740000D01*
D40*
X173670000Y-73000000D02*
X173670000Y-83550000D01*
D44*
X157750000Y-87500000D02*
X157750000Y-89250000D01*
D42*
X155249999Y-91679000D02*
X155249999Y-91025003D01*
D43*
X160875000Y-91500000D02*
X165100000Y-87275000D01*
D41*
X202880000Y-73000000D02*
X202880000Y-83670000D01*
D45*
X128375000Y-88500000D02*
X124375000Y-84500000D01*
%TO.N,Net-(CF1-Pad2)*%
D39*
X193015000Y-101885000D02*
X194935000Y-101885000D01*
X194935000Y-101885000D02*
X194940000Y-101890000D01*
%TO.N,GND*%
D46*
X109890000Y-89910000D02*
X109890000Y-91110000D01*
X125500000Y-87630000D02*
X125370000Y-87500000D01*
X130800000Y-107987500D02*
X130800000Y-109177500D01*
X130800000Y-91800000D02*
X131960000Y-91800000D01*
D39*
X159070000Y-101350000D02*
X159060000Y-101360000D01*
D46*
X157250001Y-91850001D02*
X156749999Y-91850001D01*
D39*
X160875000Y-87500000D02*
X162100000Y-87500000D01*
X154574997Y-97000001D02*
X154974999Y-96599999D01*
X131875000Y-96520000D02*
X130730000Y-96520000D01*
D46*
X133150000Y-107987500D02*
X133150000Y-109167500D01*
X123686300Y-109560000D02*
X124920000Y-109560000D01*
D39*
X190810000Y-90985000D02*
X190810000Y-90015000D01*
X125450000Y-93749999D02*
X125350000Y-93849999D01*
X122250000Y-84500000D02*
X122250000Y-82560000D01*
X116760000Y-109560000D02*
X116770000Y-109570000D01*
X119500000Y-88750000D02*
X120120000Y-88750000D01*
D46*
X144510000Y-92180000D02*
X143330000Y-92180000D01*
D39*
X164000000Y-91500000D02*
X165230000Y-91500000D01*
D46*
X125500000Y-89100001D02*
X126000001Y-89100001D01*
D39*
X187660000Y-86060000D02*
X187650000Y-86050000D01*
X158575000Y-90500000D02*
X158880000Y-90500000D01*
X196240000Y-92660000D02*
X200840000Y-97260000D01*
X122324997Y-94250001D02*
X122724999Y-93849999D01*
X128740000Y-84500000D02*
X128750000Y-84490000D01*
X201930000Y-97260000D02*
X202020000Y-97350000D01*
X125370000Y-87500000D02*
X125380000Y-87510000D01*
D46*
X124250000Y-87500000D02*
X125370000Y-87500000D01*
D39*
X156250000Y-108110000D02*
X157510000Y-108110000D01*
D46*
X125500000Y-89100001D02*
X125500000Y-87630000D01*
D39*
X130720000Y-98720000D02*
X130700000Y-98700000D01*
X126399997Y-94250001D02*
X126899999Y-93749999D01*
X159149999Y-96499999D02*
X157700000Y-96499999D01*
D46*
X157750000Y-91850001D02*
X157250001Y-91850001D01*
D39*
X158700000Y-105850000D02*
X158690000Y-105860000D01*
X165230000Y-91500000D02*
X165240000Y-91510000D01*
X153350001Y-97000001D02*
X154574997Y-97000001D01*
D47*
X120120000Y-88750000D02*
X120770000Y-88100000D01*
D46*
X125000001Y-89100001D02*
X125500000Y-89100001D01*
D39*
X132740000Y-88500000D02*
X132750000Y-88510000D01*
X143330000Y-92180000D02*
X143320000Y-92170000D01*
X152000000Y-91500000D02*
X152525001Y-90974999D01*
X193665000Y-89290000D02*
X193665000Y-87975000D01*
X184792500Y-91460000D02*
X184812500Y-91460000D01*
X159875000Y-105850000D02*
X158700000Y-105850000D01*
X198065000Y-101890000D02*
X199290000Y-101890000D01*
X124860000Y-106060000D02*
X124880000Y-106080000D01*
X190810000Y-90015000D02*
X191485000Y-89340000D01*
X186560000Y-90435000D02*
X187635000Y-89360000D01*
X193665000Y-87975000D02*
X193670000Y-87970000D01*
X124920000Y-109560000D02*
X124930000Y-109550000D01*
X142610000Y-108150000D02*
X142580000Y-108180000D01*
D46*
X124499999Y-89100001D02*
X125000001Y-89100001D01*
D39*
X185817500Y-90435000D02*
X186560000Y-90435000D01*
X183967500Y-91460000D02*
X183617500Y-91110000D01*
D46*
X123648800Y-106060000D02*
X124860000Y-106060000D01*
D39*
X109890000Y-91290000D02*
X109890000Y-91110000D01*
X157700000Y-96499999D02*
X157600000Y-96599999D01*
X130730000Y-96520000D02*
X130700000Y-96550000D01*
X162625000Y-94850000D02*
X163815000Y-94850000D01*
X109910000Y-91310000D02*
X109890000Y-91290000D01*
X158670000Y-103650000D02*
X158640000Y-103680000D01*
X127500000Y-84500000D02*
X128740000Y-84500000D01*
X155875000Y-87500000D02*
X155875000Y-85565000D01*
X152525001Y-90974999D02*
X153260000Y-90974999D01*
X131500000Y-88500000D02*
X132740000Y-88500000D01*
X142590000Y-111500000D02*
X142570000Y-111480000D01*
X187660000Y-87260000D02*
X187660000Y-86060000D01*
D48*
X126899999Y-93749999D02*
X125450000Y-93749999D01*
D39*
X156250000Y-111400000D02*
X157490000Y-111400000D01*
X200840000Y-97260000D02*
X201930000Y-97260000D01*
X159812500Y-103650000D02*
X158670000Y-103650000D01*
X190760000Y-92660000D02*
X196240000Y-92660000D01*
D46*
X115523800Y-109560000D02*
X116760000Y-109560000D01*
D39*
X116740000Y-106060000D02*
X116780000Y-106100000D01*
D46*
X158250001Y-91850001D02*
X157750000Y-91850001D01*
X122560000Y-100340000D02*
X122570000Y-100330000D01*
X130787500Y-94150000D02*
X131960000Y-94150000D01*
D39*
X155875000Y-85565000D02*
X155880000Y-85560000D01*
X184792500Y-91460000D02*
X185817500Y-90435000D01*
X191485000Y-89340000D02*
X191485000Y-89985000D01*
X158880000Y-90500000D02*
X159760000Y-89620000D01*
D46*
X115523800Y-106060000D02*
X116740000Y-106060000D01*
D39*
X160250000Y-101350000D02*
X159070000Y-101350000D01*
X163815000Y-94850000D02*
X163825000Y-94860000D01*
X199290000Y-101890000D02*
X199310000Y-101910000D01*
D46*
X121430000Y-100340000D02*
X122560000Y-100340000D01*
D39*
X184792500Y-91460000D02*
X183967500Y-91460000D01*
X131875000Y-98720000D02*
X130720000Y-98720000D01*
X121100001Y-94250001D02*
X126399997Y-94250001D01*
D46*
X158250001Y-91850001D02*
X158250001Y-90824999D01*
D39*
X191485000Y-89985000D02*
X192130000Y-90630000D01*
X158250001Y-90824999D02*
X158575000Y-90500000D01*
D46*
X143825000Y-111500000D02*
X142590000Y-111500000D01*
D39*
X162100000Y-87500000D02*
X162130000Y-87470000D01*
X157490000Y-111400000D02*
X157510000Y-111380000D01*
D46*
X143835000Y-108150000D02*
X142610000Y-108150000D01*
X131960000Y-91800000D02*
X131970000Y-91810000D01*
%TO.N,Net-(CCOMP2-Pad2)*%
D39*
X163950000Y-103650000D02*
X164050000Y-103550000D01*
X161887500Y-103650000D02*
X161887500Y-103217500D01*
X161887500Y-103650000D02*
X161887500Y-103510000D01*
X161887500Y-103650000D02*
X163950000Y-103650000D01*
X161887500Y-103217500D02*
X161870000Y-103200000D01*
%TO.N,/FB_5V*%
X158620002Y-98020000D02*
X158250001Y-97649999D01*
X161920000Y-99280000D02*
X161950000Y-99250000D01*
X161950000Y-99250000D02*
X160720000Y-98020000D01*
X161920000Y-101420000D02*
X161920000Y-99280000D01*
X160720000Y-98020000D02*
X158620002Y-98020000D01*
%TO.N,/VDDA_12V*%
X127812499Y-93249999D02*
X126899999Y-93250000D01*
X128712500Y-94150000D02*
X127812499Y-93249999D01*
%TO.N,Net-(COUT10-Pad2)*%
X198765000Y-97260000D02*
X196940000Y-97260000D01*
%TO.N,Net-(U1-CBOOT)*%
X117540000Y-91710000D02*
X118565000Y-90685000D01*
X120187244Y-90685000D02*
X120500002Y-90997758D01*
X120500002Y-90997758D02*
X120500002Y-91150001D01*
X120500002Y-91150001D02*
X121100001Y-91750000D01*
X118565000Y-90685000D02*
X120187244Y-90685000D01*
%TO.N,Net-(U1-SW1)*%
X119230000Y-92180000D02*
X126123998Y-92180000D01*
X117590000Y-93710000D02*
X117590000Y-93820000D01*
X126123998Y-92180000D02*
X127053999Y-91249999D01*
X117590000Y-93820000D02*
X119230000Y-92180000D01*
%TO.N,Net-(U3-FB)*%
X191465000Y-87260000D02*
X191040000Y-87260000D01*
X190365000Y-87944744D02*
X190049744Y-88260000D01*
X189810000Y-89665000D02*
X189810000Y-90985000D01*
X189485000Y-89340000D02*
X189810000Y-89665000D01*
X190365000Y-87935000D02*
X190365000Y-87944744D01*
X189485000Y-88815000D02*
X189485000Y-89340000D01*
X190049744Y-88260000D02*
X190040000Y-88260000D01*
X191040000Y-87260000D02*
X190365000Y-87935000D01*
X190040000Y-88260000D02*
X189485000Y-88815000D01*
%TO.N,/12V_BUS*%
X190760000Y-91660000D02*
X189185000Y-91660000D01*
D48*
X124000000Y-98230000D02*
X123120000Y-99110000D01*
D43*
X181660000Y-89360000D02*
X179590000Y-89360000D01*
D47*
X181660000Y-91750000D02*
X182545000Y-92635000D01*
D48*
X124000000Y-94899999D02*
X124000000Y-95350000D01*
D47*
X182545000Y-92635000D02*
X185692500Y-92635000D01*
X186867500Y-91952500D02*
X185420000Y-93400000D01*
D49*
X189134999Y-91610000D02*
X188840000Y-91610000D01*
D39*
X118750000Y-96900000D02*
X118750000Y-96950000D01*
D48*
X124000000Y-95350000D02*
X124000000Y-98230000D01*
D49*
X121860000Y-93250000D02*
X121870000Y-93260000D01*
D43*
X176500000Y-92450000D02*
X176500000Y-95650000D01*
D49*
X188690000Y-91460000D02*
X186867500Y-91460000D01*
X121100001Y-93250000D02*
X121860000Y-93250000D01*
D48*
X124000000Y-102583800D02*
X123133800Y-103450000D01*
D43*
X179590000Y-89360000D02*
X176500000Y-92450000D01*
D49*
X188840000Y-91610000D02*
X188690000Y-91460000D01*
D39*
X118750000Y-96950000D02*
X117950000Y-97750000D01*
D42*
X113911300Y-111163984D02*
X114607316Y-111860000D01*
D48*
X124000000Y-95350000D02*
X124000000Y-102583800D01*
D42*
X114607316Y-111860000D02*
X114698800Y-111860000D01*
X118718800Y-115880000D02*
X175620000Y-115880000D01*
D47*
X186867500Y-91460000D02*
X186867500Y-91952500D01*
D42*
X114698800Y-111860000D02*
X118718800Y-115880000D01*
D39*
X189185000Y-91660000D02*
X189134999Y-91610000D01*
D42*
X175620000Y-115880000D02*
X176500000Y-115000000D01*
D48*
X123133800Y-103450000D02*
X120523800Y-106060000D01*
D42*
X112398800Y-109560000D02*
X113911300Y-111072500D01*
D47*
X185692500Y-92635000D02*
X186867500Y-91460000D01*
X181660000Y-89360000D02*
X181660000Y-91750000D01*
D42*
X113911300Y-111072500D02*
X113911300Y-111163984D01*
D47*
X119053800Y-103450000D02*
X123133800Y-103450000D01*
%TO.N,Net-(U2-CBOOT)*%
D39*
X149750000Y-94720000D02*
X150775000Y-93695000D01*
X150775000Y-93695000D02*
X152545001Y-93695000D01*
X152545001Y-93695000D02*
X153350001Y-94500000D01*
%TO.N,Net-(U2-SW1)*%
D49*
X158612995Y-94691003D02*
X159303999Y-93999999D01*
D47*
X151825000Y-94720000D02*
X151825000Y-94925000D01*
D50*
X152875000Y-95000000D02*
X152816000Y-94941000D01*
D47*
X151825000Y-94925000D02*
X149860000Y-96890000D01*
D39*
X152125000Y-94250000D02*
X152050000Y-94250000D01*
D48*
X153350001Y-95000000D02*
X152875000Y-95000000D01*
D49*
X154374500Y-95000000D02*
X154683497Y-94691003D01*
X153350001Y-95000000D02*
X154374500Y-95000000D01*
D48*
X152125000Y-94250000D02*
X152816000Y-94941000D01*
D49*
X154683497Y-94691003D02*
X158612995Y-94691003D01*
%TO.N,/5V_BUS*%
D47*
X151110000Y-106060000D02*
X152880000Y-104290000D01*
D39*
X156250000Y-98811470D02*
X156050735Y-99010735D01*
X158350000Y-99370000D02*
X159830000Y-99370000D01*
X153350001Y-96000000D02*
X154000000Y-96000000D01*
D43*
X160860000Y-113560000D02*
X155285000Y-113560000D01*
D47*
X152880000Y-104290000D02*
X152880000Y-101233122D01*
X153353122Y-100760000D02*
X154329950Y-100760000D01*
D39*
X159830000Y-99370000D02*
X159950000Y-99250000D01*
D48*
X156250000Y-97649999D02*
X156250000Y-98811470D01*
D47*
X154329950Y-100760000D02*
X156050735Y-99039215D01*
D43*
X180300000Y-106800000D02*
X167620000Y-106800000D01*
X167620000Y-106800000D02*
X160860000Y-113560000D01*
X188500000Y-115000000D02*
X180300000Y-106800000D01*
D47*
X156050735Y-99039215D02*
X156050735Y-99010735D01*
D43*
X155285000Y-113560000D02*
X153125000Y-111400000D01*
D47*
X152880000Y-101233122D02*
X153353122Y-100760000D01*
D39*
X154000000Y-96000000D02*
X154050000Y-96050000D01*
%TO.N,Net-(U2-ISNS+)*%
D49*
X151872400Y-100160000D02*
X151072400Y-100960000D01*
X155249999Y-97649999D02*
X155249999Y-98369240D01*
X151072400Y-104097600D02*
X149110000Y-106060000D01*
X153459239Y-100160000D02*
X151872400Y-100160000D01*
X155249999Y-98369240D02*
X153459239Y-100160000D01*
X151072400Y-100960000D02*
X151072400Y-104097600D01*
%TO.N,/CONFIG*%
D39*
X154030000Y-101880000D02*
X156749999Y-99160001D01*
X156749999Y-99160001D02*
X156749999Y-97649999D01*
%TO.N,/RT*%
X156430000Y-101880000D02*
X157250001Y-101059999D01*
X157250001Y-101059999D02*
X157250001Y-97649999D01*
%TO.N,/EXTCOMP*%
X163750000Y-105850000D02*
X161950000Y-105850000D01*
X166050000Y-103550000D02*
X163750000Y-105850000D01*
X157750000Y-103638529D02*
X157750000Y-97649999D01*
X158936471Y-104825000D02*
X157750000Y-103638529D01*
X160925000Y-104825000D02*
X158936471Y-104825000D01*
X161950000Y-105850000D02*
X160925000Y-104825000D01*
%TO.N,/VDDA*%
X159575000Y-96000000D02*
X159149999Y-96000000D01*
X160525000Y-96950000D02*
X159575000Y-96000000D01*
%TO.N,Net-(U2-VCC)*%
X160550000Y-94850000D02*
X159800000Y-94850000D01*
X159800000Y-94850000D02*
X159149999Y-95500001D01*
%TO.N,Net-(Lo1-Pad1)*%
D47*
X115200000Y-95950000D02*
X115800000Y-95950000D01*
X113357600Y-98500000D02*
X115117400Y-96740200D01*
X115810000Y-95940000D02*
X117360000Y-95940000D01*
X117360000Y-95940000D02*
X119590000Y-93710000D01*
X115117400Y-96032600D02*
X115200000Y-95950000D01*
X115117400Y-96740200D02*
X115117400Y-96032600D01*
X115800000Y-95950000D02*
X115810000Y-95940000D01*
%TO.N,Net-(U1-ISNS+)*%
X117053800Y-99503800D02*
X116050000Y-98500000D01*
X119489339Y-98500000D02*
X119689339Y-98700000D01*
X117053800Y-103450000D02*
X117053800Y-99503800D01*
X121496878Y-98700000D02*
X123074999Y-97121879D01*
X119689339Y-98700000D02*
X121496878Y-98700000D01*
X116050000Y-98500000D02*
X119489339Y-98500000D01*
X123074999Y-97121879D02*
X123074999Y-94899999D01*
%TO.N,/NR{slash}SS*%
D39*
X190310000Y-90985000D02*
X190385000Y-90910000D01*
X194577500Y-87300000D02*
X195740000Y-88462500D01*
X190385000Y-90910000D02*
X190385000Y-88755256D01*
X193491471Y-87300000D02*
X194577500Y-87300000D01*
X192531471Y-88260000D02*
X193491471Y-87300000D01*
X195740000Y-88462500D02*
X195740000Y-89290000D01*
X190385000Y-88755256D02*
X190880256Y-88260000D01*
X190880256Y-88260000D02*
X192531471Y-88260000D01*
%TO.N,/FB_12V*%
X120750000Y-95950000D02*
X120750000Y-96900000D01*
D46*
X120750000Y-96900000D02*
X120750000Y-97200000D01*
X120750000Y-97008794D02*
X119855432Y-97903362D01*
D39*
X119430000Y-100340000D02*
X119430000Y-100240000D01*
X120193235Y-95393235D02*
X120750000Y-95950000D01*
X126000001Y-94899999D02*
X126000000Y-95850000D01*
D46*
X120750000Y-96900000D02*
X120750000Y-97008794D01*
D39*
X119430000Y-100340000D02*
X118230000Y-100340000D01*
X119862719Y-95393235D02*
X120193235Y-95393235D01*
%TO.N,/AGND*%
X154030000Y-103880000D02*
X156430000Y-103880000D01*
X158856471Y-106875000D02*
X164309744Y-106875000D01*
X166950000Y-104234744D02*
X166950000Y-101300000D01*
X156430000Y-104448529D02*
X158856471Y-106875000D01*
X166950000Y-101300000D02*
X162600000Y-96950000D01*
X156430000Y-103880000D02*
X156430000Y-104448529D01*
X164309744Y-106875000D02*
X166950000Y-104234744D01*
%TO.N,/CONFIG_12V*%
X130800000Y-105987500D02*
X131343750Y-105443750D01*
X130800000Y-105987500D02*
X124550000Y-99737500D01*
X124550000Y-99737500D02*
X124550000Y-94950000D01*
%TO.N,/3.3V_BUS*%
X190465000Y-86260000D02*
X189465000Y-87260000D01*
D47*
X197635000Y-99135000D02*
X196665000Y-99135000D01*
D39*
X194340000Y-86260000D02*
X190465000Y-86260000D01*
X202620000Y-97598529D02*
X201083529Y-99135000D01*
D47*
X200500000Y-115000000D02*
X200500000Y-102000000D01*
D39*
X196978529Y-91460000D02*
X202620000Y-97101471D01*
D51*
X200500000Y-99135000D02*
X197635000Y-99135000D01*
D39*
X195675000Y-91460000D02*
X196978529Y-91460000D01*
D47*
X200500000Y-102000000D02*
X200500000Y-99135000D01*
D39*
X195565000Y-100235000D02*
X196665000Y-99135000D01*
X201083529Y-99135000D02*
X196665000Y-99135000D01*
X189890000Y-101885000D02*
X191540000Y-100235000D01*
X202620000Y-97101471D02*
X202620000Y-97598529D01*
X195675000Y-91460000D02*
X196627500Y-90507500D01*
X191540000Y-100235000D02*
X195565000Y-100235000D01*
X196627500Y-88547500D02*
X194340000Y-86260000D01*
X196627500Y-90507500D02*
X196627500Y-88547500D01*
%TO.N,Net-(U3-S-CONF)*%
X188585000Y-88712756D02*
X188585000Y-90260000D01*
X185660000Y-87260000D02*
X186735000Y-88335000D01*
X188207244Y-88335000D02*
X188585000Y-88712756D01*
X188585000Y-90260000D02*
X189310000Y-90985000D01*
X186735000Y-88335000D02*
X188207244Y-88335000D01*
%TO.N,Net-(U3-SW)*%
D47*
X184750100Y-97070000D02*
X184750100Y-95901600D01*
D46*
X189360000Y-92160000D02*
X188440000Y-92160000D01*
X188440000Y-92160000D02*
X188150000Y-92450000D01*
%TO.N,Net-(U3-VO)*%
D39*
X187632500Y-97260000D02*
X187442500Y-97070000D01*
X194915000Y-99135000D02*
X192840000Y-99135000D01*
D47*
X190965000Y-97260000D02*
X187632500Y-97260000D01*
D39*
X192840000Y-99135000D02*
X190965000Y-97260000D01*
X187442500Y-94402500D02*
X187442500Y-97070000D01*
X189185000Y-92660000D02*
X187442500Y-94402500D01*
%TO.N,/EXTCOMP_12V*%
X125400000Y-95499998D02*
X125500000Y-95399998D01*
X125500000Y-95399998D02*
X125500000Y-94899999D01*
X132925000Y-99745000D02*
X129046472Y-99745000D01*
X129046472Y-99745000D02*
X125400000Y-96098529D01*
X125400000Y-96098529D02*
X125400000Y-95499998D01*
X133950000Y-98720000D02*
X132925000Y-99745000D01*
X137800000Y-96500000D02*
X135580000Y-98720000D01*
X135580000Y-98720000D02*
X133950000Y-98720000D01*
%TO.N,Net-(U3-PG)*%
X190935000Y-92160000D02*
X192975000Y-92160000D01*
X192975000Y-92160000D02*
X193675000Y-91460000D01*
%TO.N,/RT_12V*%
X125000000Y-96264215D02*
X133150000Y-104414215D01*
X125000001Y-94899999D02*
X125000000Y-96264215D01*
X133150000Y-104414215D02*
X133150000Y-105987500D01*
%TO.N,Net-(U1-VCC)*%
X128725000Y-91800000D02*
X127850000Y-91800000D01*
X127850000Y-91800000D02*
X126899999Y-92750001D01*
%TO.N,Net-(CCOMP1-Pad2)*%
X133950000Y-96520000D02*
X135780000Y-96520000D01*
X135780000Y-96520000D02*
X135800000Y-96500000D01*
%TO.N,Net-(Lo2-Pad1)*%
D47*
X151860000Y-96890000D02*
X148380000Y-100370000D01*
X148380000Y-100370000D02*
X148380000Y-100960000D01*
%TO.N,Net-(COUT10-Pad1)*%
D39*
X194865000Y-97260000D02*
X193040000Y-97260000D01*
%TO.N,/EN_UVLO_12V*%
X111900000Y-91150000D02*
X111900000Y-89960000D01*
X120499999Y-94899999D02*
X120450000Y-94850000D01*
X121999999Y-94899999D02*
X120499999Y-94899999D01*
X111900000Y-89960000D02*
X111950000Y-89910000D01*
%TO.N,Net-(CIN10-Pad1)*%
X183735000Y-89360000D02*
X185560000Y-89360000D01*
%TD*%
%TA.AperFunction,Conductor*%
%TO.N,+48V*%
G36*
X119149103Y-81179841D02*
G01*
X119194993Y-81232528D01*
X119206280Y-81287933D01*
X119107489Y-84685634D01*
X119105315Y-84693039D01*
X119052511Y-84738794D01*
X119001000Y-84750000D01*
X117962501Y-84750000D01*
X117962501Y-85649986D01*
X117972994Y-85752697D01*
X118028141Y-85919119D01*
X118028143Y-85919124D01*
X118120184Y-86068345D01*
X118244154Y-86192315D01*
X118393375Y-86284356D01*
X118393380Y-86284358D01*
X118559802Y-86339505D01*
X118559809Y-86339506D01*
X118662519Y-86349999D01*
X118931437Y-86349999D01*
X118998476Y-86369683D01*
X119044231Y-86422487D01*
X119055385Y-86477603D01*
X119046295Y-86790221D01*
X119024670Y-86856660D01*
X118970558Y-86900861D01*
X118941270Y-86908358D01*
X118941319Y-86908585D01*
X118935633Y-86909801D01*
X118934965Y-86909973D01*
X118934714Y-86909998D01*
X118934700Y-86910001D01*
X118768168Y-86965185D01*
X118768163Y-86965187D01*
X118618842Y-87057289D01*
X118494789Y-87181342D01*
X118402687Y-87330663D01*
X118402685Y-87330668D01*
X118402615Y-87330880D01*
X118347501Y-87497203D01*
X118347501Y-87497204D01*
X118347500Y-87497204D01*
X118337000Y-87599983D01*
X118337000Y-89900001D01*
X118337001Y-89900018D01*
X118347500Y-90002796D01*
X118347501Y-90002798D01*
X118347543Y-90002924D01*
X118347545Y-90003006D01*
X118348919Y-90009422D01*
X118347774Y-90009666D01*
X118348618Y-90034220D01*
X118351596Y-90065389D01*
X118349809Y-90068855D01*
X118349943Y-90072752D01*
X118333929Y-90099659D01*
X118319582Y-90127493D01*
X118315415Y-90130769D01*
X118314211Y-90132794D01*
X118291839Y-90149311D01*
X118283095Y-90154360D01*
X118257523Y-90169124D01*
X118196285Y-90204479D01*
X118196282Y-90204481D01*
X117952583Y-90448181D01*
X117891260Y-90481666D01*
X117864902Y-90484500D01*
X117499506Y-90484500D01*
X117432467Y-90464815D01*
X117386712Y-90412011D01*
X117376768Y-90342853D01*
X117393967Y-90295403D01*
X117471856Y-90169124D01*
X117471858Y-90169119D01*
X117527005Y-90002697D01*
X117527006Y-90002690D01*
X117537499Y-89899986D01*
X117537500Y-89899973D01*
X117537500Y-89000000D01*
X115212501Y-89000000D01*
X115212501Y-89899986D01*
X115222994Y-90002697D01*
X115278141Y-90169119D01*
X115278143Y-90169124D01*
X115370184Y-90318345D01*
X115494154Y-90442315D01*
X115649525Y-90538149D01*
X115648466Y-90539864D01*
X115693338Y-90579369D01*
X115712495Y-90646561D01*
X115692284Y-90713444D01*
X115639122Y-90758782D01*
X115587742Y-90769584D01*
X113196791Y-90754979D01*
X113129873Y-90734885D01*
X113084441Y-90681803D01*
X113074920Y-90612585D01*
X113082843Y-90586289D01*
X113082542Y-90586189D01*
X113084812Y-90579335D01*
X113084814Y-90579334D01*
X113139999Y-90412797D01*
X113150500Y-90310009D01*
X113150499Y-89509992D01*
X113139999Y-89407203D01*
X113084814Y-89240666D01*
X112992712Y-89091344D01*
X112898695Y-88997327D01*
X112865210Y-88936004D01*
X112870194Y-88866312D01*
X112898695Y-88821964D01*
X112992317Y-88728342D01*
X113084356Y-88579124D01*
X113084358Y-88579119D01*
X113139505Y-88412697D01*
X113139506Y-88412690D01*
X113149999Y-88309986D01*
X113150000Y-88309973D01*
X113150000Y-88160000D01*
X108690001Y-88160000D01*
X108690001Y-88309986D01*
X108700494Y-88412697D01*
X108755641Y-88579119D01*
X108755643Y-88579124D01*
X108847684Y-88728345D01*
X108941304Y-88821965D01*
X108974789Y-88883288D01*
X108969805Y-88952980D01*
X108941305Y-88997327D01*
X108847287Y-89091345D01*
X108755187Y-89240663D01*
X108755186Y-89240666D01*
X108700001Y-89407203D01*
X108700001Y-89407204D01*
X108700000Y-89407204D01*
X108689500Y-89509983D01*
X108689500Y-90310001D01*
X108689501Y-90310019D01*
X108700000Y-90412796D01*
X108700001Y-90412799D01*
X108709782Y-90442315D01*
X108745527Y-90550186D01*
X108750136Y-90564093D01*
X108752538Y-90633921D01*
X108716806Y-90693963D01*
X108654286Y-90725156D01*
X108631673Y-90727095D01*
X107594282Y-90720759D01*
X107527364Y-90700665D01*
X107481932Y-90647583D01*
X107471043Y-90595720D01*
X107471123Y-90586189D01*
X107496946Y-87510013D01*
X108690000Y-87510013D01*
X108690000Y-87660000D01*
X109640000Y-87660000D01*
X110140000Y-87660000D01*
X111700000Y-87660000D01*
X112200000Y-87660000D01*
X113149999Y-87660000D01*
X113149999Y-87600013D01*
X115212500Y-87600013D01*
X115212500Y-88500000D01*
X116125000Y-88500000D01*
X116625000Y-88500000D01*
X117537499Y-88500000D01*
X117537499Y-87600028D01*
X117537498Y-87600013D01*
X117527005Y-87497302D01*
X117471858Y-87330880D01*
X117471856Y-87330875D01*
X117379815Y-87181654D01*
X117255845Y-87057684D01*
X117106624Y-86965643D01*
X117106619Y-86965641D01*
X116940197Y-86910494D01*
X116940190Y-86910493D01*
X116837486Y-86900000D01*
X116625000Y-86900000D01*
X116625000Y-88500000D01*
X116125000Y-88500000D01*
X116125000Y-86900000D01*
X115912529Y-86900000D01*
X115912512Y-86900001D01*
X115809802Y-86910494D01*
X115643380Y-86965641D01*
X115643375Y-86965643D01*
X115494154Y-87057684D01*
X115370184Y-87181654D01*
X115278143Y-87330875D01*
X115278141Y-87330880D01*
X115222994Y-87497302D01*
X115222993Y-87497309D01*
X115212500Y-87600013D01*
X113149999Y-87600013D01*
X113149999Y-87510028D01*
X113149998Y-87510013D01*
X113139505Y-87407302D01*
X113084358Y-87240880D01*
X113084356Y-87240875D01*
X112992315Y-87091654D01*
X112868345Y-86967684D01*
X112719124Y-86875643D01*
X112719119Y-86875641D01*
X112552697Y-86820494D01*
X112552690Y-86820493D01*
X112449986Y-86810000D01*
X112200000Y-86810000D01*
X112200000Y-87660000D01*
X111700000Y-87660000D01*
X111700000Y-86810000D01*
X111450029Y-86810000D01*
X111450012Y-86810001D01*
X111347302Y-86820494D01*
X111180880Y-86875641D01*
X111180875Y-86875643D01*
X111031654Y-86967684D01*
X111007681Y-86991658D01*
X110946358Y-87025143D01*
X110876666Y-87020159D01*
X110832319Y-86991658D01*
X110808345Y-86967684D01*
X110659124Y-86875643D01*
X110659119Y-86875641D01*
X110492697Y-86820494D01*
X110492690Y-86820493D01*
X110389986Y-86810000D01*
X110140000Y-86810000D01*
X110140000Y-87660000D01*
X109640000Y-87660000D01*
X109640000Y-86810000D01*
X109390029Y-86810000D01*
X109390012Y-86810001D01*
X109287302Y-86820494D01*
X109120880Y-86875641D01*
X109120875Y-86875643D01*
X108971654Y-86967684D01*
X108847684Y-87091654D01*
X108755643Y-87240875D01*
X108755641Y-87240880D01*
X108700494Y-87407302D01*
X108700493Y-87407309D01*
X108690000Y-87510013D01*
X107496946Y-87510013D01*
X107531867Y-83350013D01*
X117962500Y-83350013D01*
X117962500Y-84250000D01*
X118875000Y-84250000D01*
X118875000Y-82650000D01*
X118662529Y-82650000D01*
X118662512Y-82650001D01*
X118559802Y-82660494D01*
X118393380Y-82715641D01*
X118393375Y-82715643D01*
X118244154Y-82807684D01*
X118120184Y-82931654D01*
X118028143Y-83080875D01*
X118028141Y-83080880D01*
X117972994Y-83247302D01*
X117972993Y-83247309D01*
X117962500Y-83350013D01*
X107531867Y-83350013D01*
X107548970Y-81312641D01*
X107569217Y-81245771D01*
X107622403Y-81200461D01*
X107672644Y-81189684D01*
X119082014Y-81160329D01*
X119149103Y-81179841D01*
G37*
%TD.AperFunction*%
%TD*%
%TA.AperFunction,Conductor*%
%TO.N,+48V*%
G36*
X147523087Y-88439816D02*
G01*
X147568964Y-88492514D01*
X147580288Y-88543996D01*
X147586230Y-91095918D01*
X147566701Y-91163003D01*
X147514004Y-91208881D01*
X147444869Y-91218986D01*
X147381246Y-91190109D01*
X147374549Y-91183888D01*
X147328345Y-91137684D01*
X147179124Y-91045643D01*
X147179119Y-91045641D01*
X147012697Y-90990494D01*
X147012690Y-90990493D01*
X146909986Y-90980000D01*
X146760000Y-90980000D01*
X146760000Y-93379999D01*
X146909972Y-93379999D01*
X146909986Y-93379998D01*
X147012697Y-93369505D01*
X147179119Y-93314358D01*
X147179124Y-93314356D01*
X147328345Y-93222315D01*
X147379582Y-93171078D01*
X147440905Y-93137592D01*
X147510597Y-93142576D01*
X147566530Y-93184447D01*
X147590948Y-93249911D01*
X147591264Y-93258469D01*
X147592507Y-93792195D01*
X147572978Y-93859280D01*
X147520281Y-93905158D01*
X147451146Y-93915263D01*
X147387523Y-93886386D01*
X147380826Y-93880165D01*
X147378345Y-93877684D01*
X147229124Y-93785643D01*
X147229119Y-93785641D01*
X147062697Y-93730494D01*
X147062690Y-93730493D01*
X146959986Y-93720000D01*
X146810000Y-93720000D01*
X146810000Y-96119999D01*
X146959972Y-96119999D01*
X146959986Y-96119998D01*
X147062697Y-96109505D01*
X147229119Y-96054358D01*
X147229124Y-96054356D01*
X147378341Y-95962317D01*
X147386060Y-95954599D01*
X147447382Y-95921112D01*
X147517074Y-95926094D01*
X147573009Y-95967963D01*
X147597429Y-96033426D01*
X147597745Y-96041988D01*
X147599686Y-96875333D01*
X147580157Y-96942418D01*
X147527460Y-96988296D01*
X147465764Y-96999224D01*
X145371941Y-96831141D01*
X145306691Y-96806156D01*
X145265308Y-96749860D01*
X145260931Y-96680127D01*
X145267300Y-96660091D01*
X145319737Y-96533497D01*
X145350500Y-96378842D01*
X145350500Y-96221158D01*
X145350500Y-96221155D01*
X145324595Y-96090925D01*
X145330822Y-96021333D01*
X145360021Y-95977587D01*
X145369679Y-95968248D01*
X145378656Y-95962712D01*
X145473438Y-95867929D01*
X145474162Y-95867230D01*
X145504181Y-95851489D01*
X145533994Y-95835210D01*
X145535078Y-95835287D01*
X145536041Y-95834783D01*
X145569837Y-95837773D01*
X145603686Y-95840194D01*
X145604722Y-95840859D01*
X145605638Y-95840941D01*
X145609466Y-95843908D01*
X145648034Y-95868695D01*
X145741654Y-95962315D01*
X145890875Y-96054356D01*
X145890880Y-96054358D01*
X146057302Y-96109505D01*
X146057309Y-96109506D01*
X146160019Y-96119999D01*
X146309999Y-96119999D01*
X146310000Y-96119998D01*
X146310000Y-93720000D01*
X146160027Y-93720000D01*
X146160012Y-93720001D01*
X146057302Y-93730494D01*
X145890880Y-93785641D01*
X145890875Y-93785643D01*
X145741657Y-93877682D01*
X145648034Y-93971305D01*
X145586710Y-94004789D01*
X145517019Y-93999805D01*
X145472672Y-93971304D01*
X145378657Y-93877289D01*
X145378656Y-93877288D01*
X145285888Y-93820069D01*
X145229336Y-93785187D01*
X145229331Y-93785185D01*
X145227862Y-93784698D01*
X145062797Y-93730001D01*
X145062795Y-93730000D01*
X144960010Y-93719500D01*
X144159998Y-93719500D01*
X144159980Y-93719501D01*
X144057203Y-93730000D01*
X144057200Y-93730001D01*
X143890668Y-93785185D01*
X143890663Y-93785187D01*
X143741342Y-93877289D01*
X143617289Y-94001342D01*
X143525187Y-94150663D01*
X143525185Y-94150668D01*
X143478779Y-94290712D01*
X143439006Y-94348157D01*
X143374490Y-94374980D01*
X143305714Y-94362665D01*
X143254514Y-94315122D01*
X143237073Y-94251862D01*
X143235667Y-93094648D01*
X143237805Y-93087336D01*
X143236539Y-93079824D01*
X143247470Y-93054270D01*
X143255270Y-93027587D01*
X143261022Y-93022589D01*
X143264019Y-93015586D01*
X143287031Y-92999998D01*
X143308019Y-92981768D01*
X143317009Y-92979692D01*
X143321867Y-92976402D01*
X143350890Y-92971870D01*
X143356670Y-92970536D01*
X143358159Y-92970500D01*
X143398842Y-92970500D01*
X143404469Y-92969380D01*
X143415165Y-92969122D01*
X143438961Y-92975488D01*
X143463502Y-92977672D01*
X143472122Y-92984361D01*
X143482661Y-92987181D01*
X143499238Y-93005403D01*
X143518702Y-93020507D01*
X143523694Y-93027978D01*
X143567288Y-93098656D01*
X143691344Y-93222712D01*
X143840666Y-93314814D01*
X144007203Y-93369999D01*
X144109991Y-93380500D01*
X144910008Y-93380499D01*
X144910016Y-93380498D01*
X144910019Y-93380498D01*
X144966302Y-93374748D01*
X145012797Y-93369999D01*
X145179334Y-93314814D01*
X145328656Y-93222712D01*
X145422675Y-93128692D01*
X145483994Y-93095210D01*
X145553686Y-93100194D01*
X145598034Y-93128695D01*
X145691654Y-93222315D01*
X145840875Y-93314356D01*
X145840880Y-93314358D01*
X146007302Y-93369505D01*
X146007309Y-93369506D01*
X146110019Y-93379999D01*
X146259999Y-93379999D01*
X146260000Y-93379998D01*
X146260000Y-90980000D01*
X146110027Y-90980000D01*
X146110012Y-90980001D01*
X146007302Y-90990494D01*
X145840880Y-91045641D01*
X145840875Y-91045643D01*
X145691657Y-91137682D01*
X145598034Y-91231305D01*
X145536710Y-91264789D01*
X145467019Y-91259805D01*
X145422672Y-91231304D01*
X145328657Y-91137289D01*
X145328656Y-91137288D01*
X145179334Y-91045186D01*
X145012797Y-90990001D01*
X145012795Y-90990000D01*
X144910010Y-90979500D01*
X144109998Y-90979500D01*
X144109980Y-90979501D01*
X144007203Y-90990000D01*
X144007200Y-90990001D01*
X143840668Y-91045185D01*
X143840663Y-91045187D01*
X143691342Y-91137289D01*
X143567287Y-91261344D01*
X143534687Y-91314197D01*
X143482738Y-91360921D01*
X143422935Y-91372943D01*
X143413862Y-91372487D01*
X143398842Y-91369500D01*
X143354316Y-91369500D01*
X143351207Y-91369344D01*
X143321033Y-91358815D01*
X143290382Y-91349815D01*
X143288276Y-91347385D01*
X143285238Y-91346325D01*
X143265542Y-91321148D01*
X143244627Y-91297011D01*
X143243840Y-91293408D01*
X143242187Y-91291294D01*
X143241302Y-91281772D01*
X143233421Y-91245651D01*
X143233389Y-91218986D01*
X143230150Y-88553864D01*
X143249753Y-88486802D01*
X143302502Y-88440983D01*
X143353863Y-88429715D01*
X147456003Y-88420285D01*
X147523087Y-88439816D01*
G37*
%TD.AperFunction*%
%TD*%
%TA.AperFunction,Conductor*%
%TO.N,/5V_BUS*%
G36*
X148119805Y-104890249D02*
G01*
X148186715Y-104910353D01*
X148232138Y-104963443D01*
X148241648Y-105032662D01*
X148212225Y-105096035D01*
X148206705Y-105101926D01*
X148167289Y-105141342D01*
X148075187Y-105290663D01*
X148075185Y-105290668D01*
X148075115Y-105290880D01*
X148020001Y-105457203D01*
X148020001Y-105457204D01*
X148020000Y-105457204D01*
X148009500Y-105559983D01*
X148009500Y-106339536D01*
X147989815Y-106406575D01*
X147937011Y-106452330D01*
X147867853Y-106462274D01*
X147820403Y-106445075D01*
X147691624Y-106365643D01*
X147691619Y-106365641D01*
X147525197Y-106310494D01*
X147525190Y-106310493D01*
X147422486Y-106300000D01*
X147210000Y-106300000D01*
X147210000Y-107900000D01*
X148122499Y-107900000D01*
X148122499Y-107220741D01*
X148142184Y-107153702D01*
X148194988Y-107107947D01*
X148264146Y-107098003D01*
X148311594Y-107115202D01*
X148370265Y-107151390D01*
X148440657Y-107194809D01*
X148440660Y-107194810D01*
X148440666Y-107194814D01*
X148607203Y-107249999D01*
X148709991Y-107260500D01*
X149510008Y-107260499D01*
X149510016Y-107260498D01*
X149510019Y-107260498D01*
X149573551Y-107254008D01*
X149612797Y-107249999D01*
X149779334Y-107194814D01*
X149928656Y-107102712D01*
X150022675Y-107008692D01*
X150083994Y-106975210D01*
X150153686Y-106980194D01*
X150198034Y-107008695D01*
X150291654Y-107102315D01*
X150440875Y-107194356D01*
X150440880Y-107194358D01*
X150607302Y-107249505D01*
X150607309Y-107249506D01*
X150710019Y-107259999D01*
X150859999Y-107259999D01*
X150860000Y-107259998D01*
X150860000Y-106310000D01*
X151360000Y-106310000D01*
X151360000Y-107259999D01*
X151509972Y-107259999D01*
X151509986Y-107259998D01*
X151612697Y-107249505D01*
X151779119Y-107194358D01*
X151785670Y-107191304D01*
X151787003Y-107194164D01*
X151840794Y-107179445D01*
X151907458Y-107200367D01*
X151952228Y-107254008D01*
X151962500Y-107303424D01*
X151962500Y-107860000D01*
X152875000Y-107860000D01*
X153375000Y-107860000D01*
X154287499Y-107860000D01*
X154287499Y-106960028D01*
X154287498Y-106960013D01*
X154277005Y-106857302D01*
X154221858Y-106690880D01*
X154221856Y-106690875D01*
X154129815Y-106541654D01*
X154005845Y-106417684D01*
X153856624Y-106325643D01*
X153856619Y-106325641D01*
X153690197Y-106270494D01*
X153690190Y-106270493D01*
X153587486Y-106260000D01*
X153375000Y-106260000D01*
X153375000Y-107860000D01*
X152875000Y-107860000D01*
X152875000Y-106260000D01*
X152662529Y-106260000D01*
X152662512Y-106260001D01*
X152559802Y-106270494D01*
X152393380Y-106325641D01*
X152393370Y-106325646D01*
X152373076Y-106338163D01*
X152305683Y-106356601D01*
X152239020Y-106335676D01*
X152220302Y-106320303D01*
X152209999Y-106310000D01*
X151360000Y-106310000D01*
X150860000Y-106310000D01*
X150860000Y-106184000D01*
X150879685Y-106116961D01*
X150932489Y-106071206D01*
X150984000Y-106060000D01*
X151110000Y-106060000D01*
X151110000Y-105934000D01*
X151129685Y-105866961D01*
X151182489Y-105821206D01*
X151234000Y-105810000D01*
X152209999Y-105810000D01*
X152209999Y-105560028D01*
X152209998Y-105560013D01*
X152199505Y-105457302D01*
X152144358Y-105290880D01*
X152144356Y-105290875D01*
X152052315Y-105141654D01*
X152037706Y-105127045D01*
X152004221Y-105065722D01*
X152009205Y-104996030D01*
X152051077Y-104940097D01*
X152116541Y-104915680D01*
X152126117Y-104915367D01*
X153264644Y-104922505D01*
X153302859Y-104928795D01*
X153427203Y-104969999D01*
X153529991Y-104980500D01*
X154530008Y-104980499D01*
X154530016Y-104980498D01*
X154530019Y-104980498D01*
X154553896Y-104978058D01*
X154632797Y-104969999D01*
X154728687Y-104938223D01*
X154768452Y-104931933D01*
X155710926Y-104937842D01*
X155749147Y-104944133D01*
X155827203Y-104969999D01*
X155929991Y-104980500D01*
X156061372Y-104980499D01*
X156128412Y-105000183D01*
X156149054Y-105016818D01*
X157638199Y-106505963D01*
X157671684Y-106567286D01*
X157674504Y-106591793D01*
X157683338Y-107183649D01*
X157680669Y-107193266D01*
X157682090Y-107203147D01*
X157671482Y-107226374D01*
X157664656Y-107250975D01*
X157657211Y-107257622D01*
X157653065Y-107266703D01*
X157631583Y-107280507D01*
X157612541Y-107297513D01*
X157601117Y-107300087D01*
X157594287Y-107304477D01*
X157559352Y-107309500D01*
X157536999Y-107309500D01*
X157469960Y-107289815D01*
X157424205Y-107237011D01*
X157412999Y-107185500D01*
X157412999Y-106959998D01*
X157412998Y-106959981D01*
X157402499Y-106857203D01*
X157402498Y-106857200D01*
X157382199Y-106795943D01*
X157347314Y-106690666D01*
X157255212Y-106541344D01*
X157131156Y-106417288D01*
X156981834Y-106325186D01*
X156815297Y-106270001D01*
X156815295Y-106270000D01*
X156712510Y-106259500D01*
X155787498Y-106259500D01*
X155787480Y-106259501D01*
X155684703Y-106270000D01*
X155684700Y-106270001D01*
X155518168Y-106325185D01*
X155518163Y-106325187D01*
X155368842Y-106417289D01*
X155244789Y-106541342D01*
X155152687Y-106690663D01*
X155152685Y-106690668D01*
X155139362Y-106730875D01*
X155097501Y-106857203D01*
X155097501Y-106857204D01*
X155097500Y-106857204D01*
X155087000Y-106959983D01*
X155087000Y-109260001D01*
X155087001Y-109260018D01*
X155097500Y-109362796D01*
X155097501Y-109362799D01*
X155152685Y-109529331D01*
X155152687Y-109529336D01*
X155248580Y-109684803D01*
X155247355Y-109685558D01*
X155270481Y-109742895D01*
X155257435Y-109811536D01*
X155246775Y-109828123D01*
X155152687Y-109980663D01*
X155152685Y-109980668D01*
X155152615Y-109980880D01*
X155097501Y-110147203D01*
X155097501Y-110147204D01*
X155097500Y-110147204D01*
X155087000Y-110249983D01*
X155087000Y-112550001D01*
X155087001Y-112550018D01*
X155097500Y-112652796D01*
X155097501Y-112652799D01*
X155130637Y-112752795D01*
X155152686Y-112819334D01*
X155244788Y-112968656D01*
X155368844Y-113092712D01*
X155518166Y-113184814D01*
X155684703Y-113239999D01*
X155787491Y-113250500D01*
X156712508Y-113250499D01*
X156712516Y-113250498D01*
X156712519Y-113250498D01*
X156768802Y-113244748D01*
X156815297Y-113239999D01*
X156981834Y-113184814D01*
X157131156Y-113092712D01*
X157255212Y-112968656D01*
X157347314Y-112819334D01*
X157402499Y-112652797D01*
X157413000Y-112550009D01*
X157412999Y-112304498D01*
X157414317Y-112300009D01*
X157413331Y-112295437D01*
X157424066Y-112266807D01*
X157432683Y-112237461D01*
X157436219Y-112234396D01*
X157437862Y-112230016D01*
X157462376Y-112211731D01*
X157485487Y-112191706D01*
X157491158Y-112190263D01*
X157493869Y-112188242D01*
X157511684Y-112185044D01*
X157528370Y-112180801D01*
X157532685Y-112180500D01*
X157588842Y-112180500D01*
X157619174Y-112174466D01*
X157627022Y-112173919D01*
X157653768Y-112179786D01*
X157681049Y-112182227D01*
X157687406Y-112187165D01*
X157695268Y-112188890D01*
X157714597Y-112208287D01*
X157736227Y-112225089D01*
X157738905Y-112232680D01*
X157744587Y-112238382D01*
X157750360Y-112265150D01*
X157759473Y-112290978D01*
X157759637Y-112295767D01*
X157792592Y-114503649D01*
X157773910Y-114570975D01*
X157721795Y-114617513D01*
X157668606Y-114629500D01*
X141824000Y-114629500D01*
X141756961Y-114609815D01*
X141711206Y-114557011D01*
X141700000Y-114505500D01*
X141700000Y-112027588D01*
X141719685Y-111960549D01*
X141772489Y-111914794D01*
X141841647Y-111904850D01*
X141905203Y-111933875D01*
X141927101Y-111958695D01*
X141939241Y-111976865D01*
X141948212Y-111990291D01*
X142059707Y-112101786D01*
X142059711Y-112101789D01*
X142190814Y-112189390D01*
X142190827Y-112189397D01*
X142309089Y-112238382D01*
X142336503Y-112249737D01*
X142477997Y-112277882D01*
X142491153Y-112280499D01*
X142491156Y-112280500D01*
X142538000Y-112280500D01*
X142605039Y-112300185D01*
X142650794Y-112352989D01*
X142662000Y-112404500D01*
X142662000Y-112650000D01*
X142662001Y-112650019D01*
X142672500Y-112752796D01*
X142672501Y-112752799D01*
X142727615Y-112919119D01*
X142727686Y-112919334D01*
X142819788Y-113068656D01*
X142943844Y-113192712D01*
X143093166Y-113284814D01*
X143259703Y-113339999D01*
X143362491Y-113350500D01*
X144287508Y-113350499D01*
X144287516Y-113350498D01*
X144287519Y-113350498D01*
X144343802Y-113344748D01*
X144390297Y-113339999D01*
X144556834Y-113284814D01*
X144706156Y-113192712D01*
X144830212Y-113068656D01*
X144922314Y-112919334D01*
X144977499Y-112752797D01*
X144988000Y-112650009D01*
X144988000Y-112649986D01*
X145787501Y-112649986D01*
X145797994Y-112752697D01*
X145853141Y-112919119D01*
X145853143Y-112919124D01*
X145945184Y-113068345D01*
X146069154Y-113192315D01*
X146218375Y-113284356D01*
X146218380Y-113284358D01*
X146384802Y-113339505D01*
X146384809Y-113339506D01*
X146487519Y-113349999D01*
X146699999Y-113349999D01*
X147200000Y-113349999D01*
X147412472Y-113349999D01*
X147412486Y-113349998D01*
X147515197Y-113339505D01*
X147681619Y-113284358D01*
X147681624Y-113284356D01*
X147830845Y-113192315D01*
X147954815Y-113068345D01*
X148046856Y-112919124D01*
X148046858Y-112919119D01*
X148102005Y-112752697D01*
X148102006Y-112752690D01*
X148112499Y-112649986D01*
X148112500Y-112649973D01*
X148112500Y-112549986D01*
X151962501Y-112549986D01*
X151972994Y-112652697D01*
X152028141Y-112819119D01*
X152028143Y-112819124D01*
X152120184Y-112968345D01*
X152244154Y-113092315D01*
X152393375Y-113184356D01*
X152393380Y-113184358D01*
X152559802Y-113239505D01*
X152559809Y-113239506D01*
X152662519Y-113249999D01*
X152874999Y-113249999D01*
X153375000Y-113249999D01*
X153587472Y-113249999D01*
X153587486Y-113249998D01*
X153690197Y-113239505D01*
X153856619Y-113184358D01*
X153856624Y-113184356D01*
X154005845Y-113092315D01*
X154129815Y-112968345D01*
X154221856Y-112819124D01*
X154221858Y-112819119D01*
X154277005Y-112652697D01*
X154277006Y-112652690D01*
X154287499Y-112549986D01*
X154287500Y-112549973D01*
X154287500Y-111650000D01*
X153375000Y-111650000D01*
X153375000Y-113249999D01*
X152874999Y-113249999D01*
X152875000Y-113249998D01*
X152875000Y-111650000D01*
X151962501Y-111650000D01*
X151962501Y-112549986D01*
X148112500Y-112549986D01*
X148112500Y-111750000D01*
X147200000Y-111750000D01*
X147200000Y-113349999D01*
X146699999Y-113349999D01*
X146700000Y-113349998D01*
X146700000Y-111750000D01*
X145787501Y-111750000D01*
X145787501Y-112649986D01*
X144988000Y-112649986D01*
X144987999Y-111458842D01*
X144987999Y-110350013D01*
X145787500Y-110350013D01*
X145787500Y-111250000D01*
X146700000Y-111250000D01*
X146700000Y-110104308D01*
X147200000Y-110104308D01*
X147200000Y-111250000D01*
X148112499Y-111250000D01*
X148112499Y-110350028D01*
X148112498Y-110350013D01*
X148103248Y-110259466D01*
X148103248Y-110259463D01*
X148102283Y-110250013D01*
X151962500Y-110250013D01*
X151962500Y-111150000D01*
X152875000Y-111150000D01*
X153375000Y-111150000D01*
X154287499Y-111150000D01*
X154287499Y-110250028D01*
X154287498Y-110250013D01*
X154277005Y-110147302D01*
X154221858Y-109980880D01*
X154221856Y-109980875D01*
X154126025Y-109825509D01*
X154127155Y-109824811D01*
X154103878Y-109767124D01*
X154116914Y-109698481D01*
X154128891Y-109679843D01*
X154221856Y-109529124D01*
X154221858Y-109529119D01*
X154277005Y-109362697D01*
X154277006Y-109362690D01*
X154287499Y-109259986D01*
X154287500Y-109259973D01*
X154287500Y-108360000D01*
X153375000Y-108360000D01*
X153375000Y-111150000D01*
X152875000Y-111150000D01*
X152875000Y-108360000D01*
X151962501Y-108360000D01*
X151962501Y-109259986D01*
X151972994Y-109362697D01*
X152028141Y-109529119D01*
X152028143Y-109529124D01*
X152123975Y-109684491D01*
X152122846Y-109685187D01*
X152146122Y-109742890D01*
X152133079Y-109811532D01*
X152121085Y-109830194D01*
X152028143Y-109980875D01*
X152028141Y-109980880D01*
X151972994Y-110147302D01*
X151972993Y-110147309D01*
X151962500Y-110250013D01*
X148102283Y-110250013D01*
X148102006Y-110247303D01*
X148046858Y-110080880D01*
X148046856Y-110080875D01*
X147954815Y-109931654D01*
X147940842Y-109917681D01*
X147907357Y-109856358D01*
X147912341Y-109786666D01*
X147940842Y-109742319D01*
X147964815Y-109718345D01*
X148056856Y-109569124D01*
X148056858Y-109569119D01*
X148112005Y-109402697D01*
X148112006Y-109402690D01*
X148122499Y-109299986D01*
X148122500Y-109299973D01*
X148122500Y-108400000D01*
X147210000Y-108400000D01*
X147210000Y-110068638D01*
X147201355Y-110098078D01*
X147200000Y-110104308D01*
X146700000Y-110104308D01*
X146700000Y-109581362D01*
X146710000Y-109547306D01*
X146710000Y-108400000D01*
X145797501Y-108400000D01*
X145797501Y-109299986D01*
X145807994Y-109402697D01*
X145863141Y-109569119D01*
X145863143Y-109569124D01*
X145955184Y-109718345D01*
X145969158Y-109732319D01*
X146002643Y-109793642D01*
X145997659Y-109863334D01*
X145969158Y-109907681D01*
X145945184Y-109931654D01*
X145853143Y-110080875D01*
X145853141Y-110080880D01*
X145797994Y-110247302D01*
X145797993Y-110247309D01*
X145787500Y-110350013D01*
X144987999Y-110350013D01*
X144987999Y-110349998D01*
X144987998Y-110349981D01*
X144977499Y-110247203D01*
X144977498Y-110247200D01*
X144944395Y-110147302D01*
X144922314Y-110080666D01*
X144830212Y-109931344D01*
X144816549Y-109917681D01*
X144783064Y-109856358D01*
X144788048Y-109786666D01*
X144816549Y-109742319D01*
X144826549Y-109732319D01*
X144840212Y-109718656D01*
X144932314Y-109569334D01*
X144987499Y-109402797D01*
X144998000Y-109300009D01*
X144997999Y-107000013D01*
X145797500Y-107000013D01*
X145797500Y-107900000D01*
X146710000Y-107900000D01*
X146710000Y-106300000D01*
X146497529Y-106300000D01*
X146497512Y-106300001D01*
X146394802Y-106310494D01*
X146228380Y-106365641D01*
X146228375Y-106365643D01*
X146079154Y-106457684D01*
X145955184Y-106581654D01*
X145863143Y-106730875D01*
X145863141Y-106730880D01*
X145807994Y-106897302D01*
X145807993Y-106897309D01*
X145797500Y-107000013D01*
X144997999Y-107000013D01*
X144997999Y-106999992D01*
X144995467Y-106975210D01*
X144987499Y-106897203D01*
X144987498Y-106897200D01*
X144974277Y-106857302D01*
X144932314Y-106730666D01*
X144840212Y-106581344D01*
X144716156Y-106457288D01*
X144566834Y-106365186D01*
X144400297Y-106310001D01*
X144400295Y-106310000D01*
X144297510Y-106299500D01*
X143372498Y-106299500D01*
X143372480Y-106299501D01*
X143269703Y-106310000D01*
X143269700Y-106310001D01*
X143103168Y-106365185D01*
X143103163Y-106365187D01*
X142953842Y-106457289D01*
X142829789Y-106581342D01*
X142737687Y-106730663D01*
X142737685Y-106730668D01*
X142737615Y-106730880D01*
X142682501Y-106897203D01*
X142682501Y-106897204D01*
X142682500Y-106897204D01*
X142672000Y-106999983D01*
X142672000Y-107255500D01*
X142652315Y-107322539D01*
X142599511Y-107368294D01*
X142548000Y-107379500D01*
X142501155Y-107379500D01*
X142346510Y-107410261D01*
X142346498Y-107410264D01*
X142200827Y-107470602D01*
X142200814Y-107470609D01*
X142069711Y-107558210D01*
X142069707Y-107558213D01*
X141958213Y-107669707D01*
X141958210Y-107669711D01*
X141927102Y-107716268D01*
X141873490Y-107761073D01*
X141804165Y-107769780D01*
X141741137Y-107739625D01*
X141704418Y-107680182D01*
X141700000Y-107647377D01*
X141700000Y-104974780D01*
X141719685Y-104907741D01*
X141772489Y-104861986D01*
X141824775Y-104850782D01*
X148119805Y-104890249D01*
G37*
%TD.AperFunction*%
%TD*%
%TA.AperFunction,Conductor*%
%TO.N,/12V_BUS*%
G36*
X116180453Y-102039673D02*
G01*
X116188558Y-102042135D01*
X116196947Y-102040929D01*
X116221487Y-102052136D01*
X116247303Y-102059977D01*
X116252793Y-102066433D01*
X116260503Y-102069954D01*
X116275089Y-102092651D01*
X116292567Y-102113203D01*
X116294679Y-102123133D01*
X116298277Y-102128732D01*
X116303300Y-102163667D01*
X116303300Y-102296042D01*
X116283615Y-102363081D01*
X116244398Y-102401580D01*
X116235144Y-102407287D01*
X116111089Y-102531342D01*
X116018987Y-102680663D01*
X116018985Y-102680668D01*
X116018915Y-102680880D01*
X115963801Y-102847203D01*
X115963801Y-102847204D01*
X115963800Y-102847204D01*
X115953300Y-102949983D01*
X115953300Y-103950001D01*
X115953301Y-103950019D01*
X115963800Y-104052796D01*
X115965219Y-104059422D01*
X115962294Y-104060047D01*
X115963946Y-104116971D01*
X115927891Y-104176820D01*
X115865203Y-104207675D01*
X115844006Y-104209500D01*
X115061298Y-104209500D01*
X115061280Y-104209501D01*
X114958503Y-104220000D01*
X114958500Y-104220001D01*
X114791968Y-104275185D01*
X114791963Y-104275187D01*
X114642642Y-104367289D01*
X114518589Y-104491342D01*
X114426487Y-104640663D01*
X114426485Y-104640668D01*
X114412199Y-104683782D01*
X114371301Y-104807203D01*
X114371301Y-104807204D01*
X114371300Y-104807204D01*
X114360800Y-104909983D01*
X114360800Y-107210001D01*
X114360801Y-107210018D01*
X114371300Y-107312796D01*
X114371301Y-107312799D01*
X114416207Y-107448314D01*
X114426486Y-107479334D01*
X114518587Y-107628655D01*
X114518589Y-107628657D01*
X114612251Y-107722319D01*
X114645736Y-107783642D01*
X114640752Y-107853334D01*
X114612251Y-107897681D01*
X114518589Y-107991342D01*
X114426487Y-108140663D01*
X114426485Y-108140668D01*
X114420967Y-108157320D01*
X114371301Y-108307203D01*
X114371301Y-108307204D01*
X114371300Y-108307204D01*
X114360800Y-108409983D01*
X114360800Y-110710001D01*
X114360801Y-110710018D01*
X114371300Y-110812796D01*
X114371301Y-110812799D01*
X114408755Y-110925825D01*
X114426486Y-110979334D01*
X114518588Y-111128656D01*
X114642644Y-111252712D01*
X114791966Y-111344814D01*
X114958503Y-111399999D01*
X115061291Y-111410500D01*
X115986308Y-111410499D01*
X115986316Y-111410498D01*
X115986319Y-111410498D01*
X116042602Y-111404748D01*
X116089097Y-111399999D01*
X116255634Y-111344814D01*
X116404956Y-111252712D01*
X116529012Y-111128656D01*
X116621114Y-110979334D01*
X116676299Y-110812797D01*
X116686800Y-110710009D01*
X116686800Y-110709986D01*
X119398801Y-110709986D01*
X119409294Y-110812697D01*
X119464441Y-110979119D01*
X119464443Y-110979124D01*
X119556484Y-111128345D01*
X119680454Y-111252315D01*
X119829675Y-111344356D01*
X119829680Y-111344358D01*
X119996102Y-111399505D01*
X119996109Y-111399506D01*
X120098819Y-111409999D01*
X120311299Y-111409999D01*
X120811300Y-111409999D01*
X121023772Y-111409999D01*
X121023786Y-111409998D01*
X121126497Y-111399505D01*
X121292919Y-111344358D01*
X121292924Y-111344356D01*
X121442145Y-111252315D01*
X121566115Y-111128345D01*
X121658156Y-110979124D01*
X121658158Y-110979119D01*
X121713305Y-110812697D01*
X121713306Y-110812690D01*
X121723799Y-110709986D01*
X121723800Y-110709973D01*
X121723800Y-109810000D01*
X120811300Y-109810000D01*
X120811300Y-111409999D01*
X120311299Y-111409999D01*
X120311300Y-111409998D01*
X120311300Y-109810000D01*
X119398801Y-109810000D01*
X119398801Y-110709986D01*
X116686800Y-110709986D01*
X116686799Y-110494499D01*
X116706483Y-110427461D01*
X116759287Y-110381706D01*
X116810799Y-110370500D01*
X116848844Y-110370500D01*
X116848845Y-110370499D01*
X117003497Y-110339737D01*
X117149179Y-110279394D01*
X117280289Y-110191789D01*
X117391789Y-110080289D01*
X117479394Y-109949179D01*
X117539737Y-109803497D01*
X117543715Y-109783497D01*
X117553473Y-109734446D01*
X117553473Y-109734445D01*
X117570499Y-109648846D01*
X117570500Y-109648844D01*
X117570500Y-109491155D01*
X117570499Y-109491153D01*
X117539738Y-109336510D01*
X117539737Y-109336503D01*
X117528759Y-109310000D01*
X117479397Y-109190827D01*
X117479390Y-109190814D01*
X117391789Y-109059711D01*
X117391786Y-109059707D01*
X117280292Y-108948213D01*
X117280288Y-108948210D01*
X117149185Y-108860609D01*
X117149172Y-108860602D01*
X117003501Y-108800264D01*
X117003489Y-108800261D01*
X116848845Y-108769500D01*
X116848842Y-108769500D01*
X116810799Y-108769500D01*
X116743760Y-108749815D01*
X116698005Y-108697011D01*
X116686799Y-108645500D01*
X116686799Y-108409998D01*
X116686798Y-108409981D01*
X116676299Y-108307203D01*
X116676298Y-108307200D01*
X116621114Y-108140666D01*
X116529012Y-107991344D01*
X116435349Y-107897681D01*
X116401864Y-107836358D01*
X116406848Y-107766666D01*
X116435349Y-107722319D01*
X116454099Y-107703569D01*
X116529012Y-107628656D01*
X116621114Y-107479334D01*
X116676299Y-107312797D01*
X116686800Y-107210009D01*
X116686800Y-107209986D01*
X119361301Y-107209986D01*
X119371794Y-107312697D01*
X119426941Y-107479119D01*
X119426943Y-107479124D01*
X119518984Y-107628345D01*
X119631708Y-107741069D01*
X119665193Y-107802392D01*
X119660209Y-107872084D01*
X119631708Y-107916431D01*
X119556484Y-107991654D01*
X119464443Y-108140875D01*
X119464441Y-108140880D01*
X119409294Y-108307302D01*
X119409293Y-108307309D01*
X119398800Y-108410013D01*
X119398800Y-109310000D01*
X120311300Y-109310000D01*
X120311300Y-108040000D01*
X120310119Y-108038819D01*
X120276634Y-107977496D01*
X120273800Y-107951138D01*
X120273800Y-107580000D01*
X120773800Y-107580000D01*
X120774981Y-107581181D01*
X120808466Y-107642504D01*
X120811300Y-107668862D01*
X120811300Y-109310000D01*
X121723799Y-109310000D01*
X121723799Y-108410028D01*
X121723798Y-108410013D01*
X121713305Y-108307302D01*
X121658158Y-108140880D01*
X121658156Y-108140875D01*
X121566115Y-107991654D01*
X121453392Y-107878931D01*
X121419907Y-107817608D01*
X121424891Y-107747916D01*
X121453392Y-107703569D01*
X121528615Y-107628345D01*
X121620656Y-107479124D01*
X121620658Y-107479119D01*
X121675805Y-107312697D01*
X121675806Y-107312690D01*
X121686299Y-107209986D01*
X121686300Y-107209973D01*
X121686300Y-106310000D01*
X120773800Y-106310000D01*
X120773800Y-107580000D01*
X120273800Y-107580000D01*
X120273800Y-106310000D01*
X119361301Y-106310000D01*
X119361301Y-107209986D01*
X116686800Y-107209986D01*
X116686799Y-107024499D01*
X116706483Y-106957461D01*
X116759287Y-106911706D01*
X116810799Y-106900500D01*
X116858844Y-106900500D01*
X116858845Y-106900499D01*
X117013497Y-106869737D01*
X117159179Y-106809394D01*
X117290289Y-106721789D01*
X117401789Y-106610289D01*
X117489394Y-106479179D01*
X117549737Y-106333497D01*
X117559542Y-106284201D01*
X117569440Y-106234447D01*
X117569440Y-106234446D01*
X117580500Y-106178844D01*
X117580500Y-106021155D01*
X117580499Y-106021153D01*
X117549738Y-105866510D01*
X117549737Y-105866503D01*
X117503848Y-105755716D01*
X117489397Y-105720827D01*
X117489390Y-105720814D01*
X117401789Y-105589711D01*
X117401786Y-105589707D01*
X117290292Y-105478213D01*
X117290288Y-105478210D01*
X117159185Y-105390609D01*
X117159172Y-105390602D01*
X117013501Y-105330264D01*
X117013489Y-105330261D01*
X116858845Y-105299500D01*
X116858842Y-105299500D01*
X116810799Y-105299500D01*
X116743760Y-105279815D01*
X116698005Y-105227011D01*
X116686799Y-105175500D01*
X116686799Y-104909998D01*
X116686798Y-104909981D01*
X116676299Y-104807206D01*
X116676299Y-104807204D01*
X116676299Y-104807203D01*
X116676297Y-104807197D01*
X116674882Y-104800586D01*
X116677956Y-104799927D01*
X116675930Y-104743887D01*
X116711555Y-104683782D01*
X116774020Y-104652479D01*
X116796082Y-104650499D01*
X117453808Y-104650499D01*
X117453816Y-104650498D01*
X117453819Y-104650498D01*
X117510102Y-104644748D01*
X117556597Y-104639999D01*
X117723134Y-104584814D01*
X117872456Y-104492712D01*
X117966475Y-104398692D01*
X118027794Y-104365210D01*
X118097486Y-104370194D01*
X118141834Y-104398695D01*
X118235454Y-104492315D01*
X118384675Y-104584356D01*
X118384680Y-104584358D01*
X118551102Y-104639505D01*
X118551109Y-104639506D01*
X118653819Y-104649999D01*
X118803799Y-104649999D01*
X119303800Y-104649999D01*
X119339939Y-104686138D01*
X119373424Y-104747461D01*
X119370658Y-104800136D01*
X119373211Y-104800683D01*
X119371794Y-104807301D01*
X119361300Y-104910013D01*
X119361300Y-105810000D01*
X120273800Y-105810000D01*
X120773800Y-105810000D01*
X121686299Y-105810000D01*
X121686299Y-104910028D01*
X121686298Y-104910013D01*
X121675805Y-104807302D01*
X121620658Y-104640880D01*
X121620656Y-104640875D01*
X121528615Y-104491654D01*
X121404645Y-104367684D01*
X121255424Y-104275643D01*
X121255419Y-104275641D01*
X121088997Y-104220494D01*
X121088990Y-104220493D01*
X120986286Y-104210000D01*
X120773800Y-104210000D01*
X120773800Y-105810000D01*
X120273800Y-105810000D01*
X120273800Y-104232703D01*
X120204112Y-104195179D01*
X120200598Y-104191705D01*
X120195861Y-104190315D01*
X120176001Y-104167396D01*
X120154418Y-104146064D01*
X120153339Y-104141242D01*
X120150106Y-104137511D01*
X120145789Y-104107487D01*
X120139166Y-104077879D01*
X120140864Y-104073241D01*
X120140162Y-104068353D01*
X120142275Y-104059393D01*
X120141889Y-104059311D01*
X120143306Y-104052690D01*
X120153799Y-103949986D01*
X120153800Y-103949973D01*
X120153800Y-103700000D01*
X119303800Y-103700000D01*
X119303800Y-104649999D01*
X118803799Y-104649999D01*
X118803800Y-104649998D01*
X118803800Y-103574000D01*
X118823485Y-103506961D01*
X118876289Y-103461206D01*
X118927800Y-103450000D01*
X119053800Y-103450000D01*
X119053800Y-103324000D01*
X119073485Y-103256961D01*
X119126289Y-103211206D01*
X119177800Y-103200000D01*
X120153799Y-103200000D01*
X120153799Y-102950028D01*
X120153798Y-102950013D01*
X120143305Y-102847302D01*
X120088158Y-102680880D01*
X120088156Y-102680875D01*
X119996115Y-102531654D01*
X119872145Y-102407684D01*
X119722924Y-102315643D01*
X119722919Y-102315641D01*
X119719586Y-102314537D01*
X119717597Y-102313160D01*
X119716379Y-102312592D01*
X119716476Y-102312383D01*
X119662141Y-102274764D01*
X119635318Y-102210248D01*
X119647633Y-102141472D01*
X119695176Y-102090273D01*
X119759736Y-102072836D01*
X124729979Y-102118887D01*
X124796830Y-102139192D01*
X124842094Y-102192418D01*
X124852793Y-102239996D01*
X124904406Y-104457229D01*
X124886287Y-104524709D01*
X124834562Y-104571680D01*
X124765654Y-104583230D01*
X124701440Y-104555692D01*
X124674901Y-104525211D01*
X124674591Y-104524709D01*
X124654012Y-104491344D01*
X124529956Y-104367288D01*
X124380634Y-104275186D01*
X124214097Y-104220001D01*
X124214095Y-104220000D01*
X124111310Y-104209500D01*
X123186298Y-104209500D01*
X123186280Y-104209501D01*
X123083503Y-104220000D01*
X123083500Y-104220001D01*
X122916968Y-104275185D01*
X122916963Y-104275187D01*
X122767642Y-104367289D01*
X122643589Y-104491342D01*
X122551487Y-104640663D01*
X122551485Y-104640668D01*
X122537199Y-104683782D01*
X122496301Y-104807203D01*
X122496301Y-104807204D01*
X122496300Y-104807204D01*
X122485800Y-104909983D01*
X122485800Y-107210001D01*
X122485801Y-107210018D01*
X122496300Y-107312796D01*
X122496301Y-107312799D01*
X122541207Y-107448314D01*
X122551486Y-107479334D01*
X122643587Y-107628655D01*
X122643589Y-107628657D01*
X122756001Y-107741069D01*
X122789486Y-107802392D01*
X122784502Y-107872084D01*
X122756001Y-107916431D01*
X122681089Y-107991342D01*
X122588987Y-108140663D01*
X122588985Y-108140668D01*
X122583467Y-108157320D01*
X122533801Y-108307203D01*
X122533801Y-108307204D01*
X122533800Y-108307204D01*
X122523300Y-108409983D01*
X122523300Y-110710001D01*
X122523301Y-110710018D01*
X122533800Y-110812796D01*
X122533801Y-110812799D01*
X122571255Y-110925825D01*
X122588986Y-110979334D01*
X122681088Y-111128656D01*
X122805144Y-111252712D01*
X122954466Y-111344814D01*
X123121003Y-111399999D01*
X123223791Y-111410500D01*
X124148808Y-111410499D01*
X124148816Y-111410498D01*
X124148819Y-111410498D01*
X124205102Y-111404748D01*
X124251597Y-111399999D01*
X124418134Y-111344814D01*
X124567456Y-111252712D01*
X124691512Y-111128656D01*
X124783614Y-110979334D01*
X124813314Y-110889704D01*
X124853084Y-110832263D01*
X124917599Y-110805439D01*
X124986375Y-110817753D01*
X125037576Y-110865296D01*
X125054984Y-110925825D01*
X125087005Y-112301349D01*
X125068886Y-112368829D01*
X125017162Y-112415800D01*
X124961327Y-112428223D01*
X110000626Y-112221665D01*
X109933865Y-112201057D01*
X109888843Y-112147626D01*
X109878350Y-112099375D01*
X109859355Y-110709986D01*
X111236301Y-110709986D01*
X111246794Y-110812697D01*
X111301941Y-110979119D01*
X111301943Y-110979124D01*
X111393984Y-111128345D01*
X111517954Y-111252315D01*
X111667175Y-111344356D01*
X111667180Y-111344358D01*
X111833602Y-111399505D01*
X111833609Y-111399506D01*
X111936319Y-111409999D01*
X112148799Y-111409999D01*
X112648800Y-111409999D01*
X112861272Y-111409999D01*
X112861286Y-111409998D01*
X112963997Y-111399505D01*
X113130419Y-111344358D01*
X113130424Y-111344356D01*
X113279645Y-111252315D01*
X113403615Y-111128345D01*
X113495656Y-110979124D01*
X113495658Y-110979119D01*
X113550805Y-110812697D01*
X113550806Y-110812690D01*
X113561299Y-110709986D01*
X113561300Y-110709973D01*
X113561300Y-109810000D01*
X112648800Y-109810000D01*
X112648800Y-111409999D01*
X112148799Y-111409999D01*
X112148800Y-111409998D01*
X112148800Y-109810000D01*
X111236301Y-109810000D01*
X111236301Y-110709986D01*
X109859355Y-110709986D01*
X109827910Y-108410013D01*
X111236300Y-108410013D01*
X111236300Y-109310000D01*
X112148800Y-109310000D01*
X112648800Y-109310000D01*
X113561299Y-109310000D01*
X113561299Y-108410028D01*
X113561298Y-108410013D01*
X113550805Y-108307302D01*
X113495658Y-108140880D01*
X113495656Y-108140875D01*
X113403615Y-107991654D01*
X113309642Y-107897681D01*
X113276157Y-107836358D01*
X113281141Y-107766666D01*
X113309642Y-107722319D01*
X113403615Y-107628345D01*
X113495656Y-107479124D01*
X113495658Y-107479119D01*
X113550805Y-107312697D01*
X113550806Y-107312690D01*
X113561299Y-107209986D01*
X113561300Y-107209973D01*
X113561300Y-106310000D01*
X112648800Y-106310000D01*
X112648800Y-109310000D01*
X112148800Y-109310000D01*
X112148800Y-106310000D01*
X111236301Y-106310000D01*
X111236301Y-107209986D01*
X111246794Y-107312697D01*
X111301941Y-107479119D01*
X111301943Y-107479124D01*
X111393984Y-107628345D01*
X111487958Y-107722319D01*
X111521443Y-107783642D01*
X111516459Y-107853334D01*
X111487958Y-107897681D01*
X111393984Y-107991654D01*
X111301943Y-108140875D01*
X111301941Y-108140880D01*
X111246794Y-108307302D01*
X111246793Y-108307309D01*
X111236300Y-108410013D01*
X109827910Y-108410013D01*
X109780058Y-104910013D01*
X111236300Y-104910013D01*
X111236300Y-105810000D01*
X112148800Y-105810000D01*
X112648800Y-105810000D01*
X113561299Y-105810000D01*
X113561299Y-104910028D01*
X113561298Y-104910013D01*
X113550805Y-104807302D01*
X113495658Y-104640880D01*
X113495656Y-104640875D01*
X113403615Y-104491654D01*
X113279645Y-104367684D01*
X113130424Y-104275643D01*
X113130419Y-104275641D01*
X112963997Y-104220494D01*
X112963990Y-104220493D01*
X112861286Y-104210000D01*
X112648800Y-104210000D01*
X112648800Y-105810000D01*
X112148800Y-105810000D01*
X112148800Y-104210000D01*
X111936329Y-104210000D01*
X111936312Y-104210001D01*
X111833602Y-104220494D01*
X111667180Y-104275641D01*
X111667175Y-104275643D01*
X111517954Y-104367684D01*
X111393984Y-104491654D01*
X111301943Y-104640875D01*
X111301941Y-104640880D01*
X111246794Y-104807302D01*
X111246793Y-104807309D01*
X111236300Y-104910013D01*
X109780058Y-104910013D01*
X109741734Y-102106863D01*
X109760500Y-102039563D01*
X109812673Y-101993090D01*
X109866868Y-101981175D01*
X116180453Y-102039673D01*
G37*
%TD.AperFunction*%
%TD*%
%TA.AperFunction,Conductor*%
%TO.N,+48V*%
G36*
X149291122Y-84971950D02*
G01*
X154619247Y-86359189D01*
X154679160Y-86395127D01*
X154710134Y-86457756D01*
X154712000Y-86479186D01*
X154712000Y-88650001D01*
X154712001Y-88650018D01*
X154722500Y-88752796D01*
X154722501Y-88752799D01*
X154777685Y-88919331D01*
X154777686Y-88919334D01*
X154869788Y-89068656D01*
X154993844Y-89192712D01*
X154993846Y-89192713D01*
X154999508Y-89197190D01*
X154997743Y-89199422D01*
X155035769Y-89241696D01*
X155047467Y-89306229D01*
X154636567Y-93946171D01*
X154611045Y-94011213D01*
X154554411Y-94052132D01*
X154537244Y-94056850D01*
X154493755Y-94065501D01*
X154493752Y-94065502D01*
X154375371Y-94114537D01*
X154274553Y-94181901D01*
X154207875Y-94202778D01*
X154140495Y-94184293D01*
X154096830Y-94138224D01*
X154093798Y-94132673D01*
X154093797Y-94132669D01*
X154080224Y-94114538D01*
X154007548Y-94017455D01*
X154007545Y-94017452D01*
X153892336Y-93931206D01*
X153892329Y-93931202D01*
X153757483Y-93880908D01*
X153757484Y-93880908D01*
X153697884Y-93874501D01*
X153697882Y-93874500D01*
X153697874Y-93874500D01*
X153697866Y-93874500D01*
X153625098Y-93874500D01*
X153558059Y-93854815D01*
X153537417Y-93838181D01*
X153032590Y-93333354D01*
X153025521Y-93326285D01*
X153025521Y-93326284D01*
X152974232Y-93274995D01*
X152958220Y-93245671D01*
X152940748Y-93213673D01*
X152945732Y-93143981D01*
X152974232Y-93099635D01*
X153005212Y-93068656D01*
X153097314Y-92919334D01*
X153152499Y-92752797D01*
X153163000Y-92650009D01*
X153162999Y-91899498D01*
X153182683Y-91832460D01*
X153235487Y-91786705D01*
X153286999Y-91775499D01*
X153338844Y-91775499D01*
X153338845Y-91775498D01*
X153493497Y-91744736D01*
X153639179Y-91684393D01*
X153770289Y-91596788D01*
X153881789Y-91485288D01*
X153969394Y-91354178D01*
X154029737Y-91208496D01*
X154060500Y-91053841D01*
X154060500Y-90896157D01*
X154060500Y-90896154D01*
X154060499Y-90896152D01*
X154029738Y-90741509D01*
X154029737Y-90741502D01*
X154029735Y-90741497D01*
X153969397Y-90595826D01*
X153969390Y-90595813D01*
X153881789Y-90464710D01*
X153881786Y-90464706D01*
X153770292Y-90353212D01*
X153770288Y-90353209D01*
X153639185Y-90265608D01*
X153639172Y-90265601D01*
X153493501Y-90205263D01*
X153493489Y-90205260D01*
X153338845Y-90174499D01*
X153338842Y-90174499D01*
X153217948Y-90174499D01*
X153150909Y-90154814D01*
X153105154Y-90102010D01*
X153100246Y-90089514D01*
X153097314Y-90080666D01*
X153005212Y-89931344D01*
X152881156Y-89807288D01*
X152731834Y-89715186D01*
X152565297Y-89660001D01*
X152565295Y-89660000D01*
X152462510Y-89649500D01*
X151537498Y-89649500D01*
X151537480Y-89649501D01*
X151434703Y-89660000D01*
X151434700Y-89660001D01*
X151268168Y-89715185D01*
X151268163Y-89715187D01*
X151118842Y-89807289D01*
X150994789Y-89931342D01*
X150902687Y-90080663D01*
X150902686Y-90080666D01*
X150847501Y-90247203D01*
X150847501Y-90247204D01*
X150847500Y-90247204D01*
X150837000Y-90349983D01*
X150837000Y-92650001D01*
X150837001Y-92650018D01*
X150847500Y-92752796D01*
X150847501Y-92752799D01*
X150904958Y-92926189D01*
X150903416Y-92926699D01*
X150912599Y-92987176D01*
X150884077Y-93050959D01*
X150825599Y-93089197D01*
X150789726Y-93094499D01*
X150695943Y-93094499D01*
X150588587Y-93123265D01*
X150543210Y-93135424D01*
X150543209Y-93135425D01*
X150493096Y-93164359D01*
X150493095Y-93164360D01*
X150449689Y-93189420D01*
X150406285Y-93214479D01*
X150406282Y-93214481D01*
X150162583Y-93458181D01*
X150101260Y-93491666D01*
X150074902Y-93494500D01*
X149556356Y-93494500D01*
X149489317Y-93474815D01*
X149443562Y-93422011D01*
X149432435Y-93374941D01*
X149135958Y-85096384D01*
X149153231Y-85028686D01*
X149204364Y-84981070D01*
X149273122Y-84968658D01*
X149291122Y-84971950D01*
G37*
%TD.AperFunction*%
%TD*%
%TA.AperFunction,Conductor*%
%TO.N,/12V_BUS*%
G36*
X185852829Y-92354125D02*
G01*
X185880654Y-92357598D01*
X185883896Y-92359007D01*
X185893510Y-92366065D01*
X185901513Y-92368414D01*
X185928189Y-92391524D01*
X185930055Y-92393677D01*
X185933958Y-92398800D01*
X185937682Y-92403343D01*
X185937683Y-92403344D01*
X186061654Y-92527315D01*
X186210875Y-92619356D01*
X186210880Y-92619358D01*
X186210890Y-92619361D01*
X186210897Y-92619364D01*
X186240955Y-92629324D01*
X186272605Y-92639811D01*
X186330049Y-92679582D01*
X186356873Y-92744098D01*
X186344559Y-92812874D01*
X186321282Y-92845198D01*
X185584817Y-93581664D01*
X185566026Y-93597086D01*
X185546203Y-93610331D01*
X185524767Y-93621788D01*
X185502746Y-93630910D01*
X185479492Y-93637964D01*
X185456110Y-93642616D01*
X185431914Y-93645000D01*
X185408084Y-93645000D01*
X185383887Y-93642616D01*
X185360511Y-93637965D01*
X185337255Y-93630910D01*
X185315230Y-93621787D01*
X185293795Y-93610330D01*
X185273967Y-93597082D01*
X185255174Y-93581659D01*
X185238339Y-93564824D01*
X185222918Y-93546034D01*
X185209668Y-93526204D01*
X185198211Y-93504771D01*
X185189083Y-93482732D01*
X185182030Y-93459478D01*
X185167551Y-93386687D01*
X185152800Y-93329952D01*
X185143977Y-93302633D01*
X185122761Y-93247996D01*
X185122760Y-93247994D01*
X185044977Y-93126962D01*
X185044968Y-93126951D01*
X184999224Y-93074159D01*
X184999220Y-93074156D01*
X184999218Y-93074153D01*
X184890484Y-92979933D01*
X184890482Y-92979932D01*
X184890481Y-92979931D01*
X184764274Y-92922293D01*
X184711471Y-92876537D01*
X184691787Y-92809498D01*
X184711472Y-92742458D01*
X184764277Y-92696704D01*
X184815784Y-92685499D01*
X185180008Y-92685499D01*
X185180016Y-92685498D01*
X185180019Y-92685498D01*
X185180025Y-92685497D01*
X185180317Y-92685479D01*
X185181333Y-92685363D01*
X185226459Y-92680753D01*
X185236303Y-92679748D01*
X185236303Y-92679747D01*
X185282797Y-92674999D01*
X185449334Y-92619814D01*
X185598656Y-92527712D01*
X185722712Y-92403656D01*
X185722712Y-92403655D01*
X185727824Y-92398544D01*
X185727901Y-92398621D01*
X185734559Y-92391524D01*
X185748323Y-92379143D01*
X185765131Y-92371086D01*
X185767434Y-92368429D01*
X185775806Y-92365969D01*
X185811325Y-92348944D01*
X185827073Y-92350909D01*
X185834471Y-92348737D01*
X185852829Y-92354125D01*
G37*
%TD.AperFunction*%
%TA.AperFunction,Conductor*%
G36*
X181786352Y-89530696D02*
G01*
X181853334Y-89550571D01*
X181898940Y-89603504D01*
X181910000Y-89654696D01*
X181910000Y-90584999D01*
X182047460Y-90584999D01*
X182047472Y-90584999D01*
X182047486Y-90584998D01*
X182150197Y-90574505D01*
X182316619Y-90519358D01*
X182316624Y-90519356D01*
X182465845Y-90427315D01*
X182589818Y-90303342D01*
X182589818Y-90303341D01*
X182594924Y-90298236D01*
X182595038Y-90298350D01*
X182601279Y-90291697D01*
X182615240Y-90279139D01*
X182678242Y-90248943D01*
X182747560Y-90257595D01*
X182750797Y-90259002D01*
X182795127Y-90291552D01*
X182796195Y-90292785D01*
X182800124Y-90298136D01*
X182800308Y-90297992D01*
X182804778Y-90303645D01*
X182804781Y-90303648D01*
X182804787Y-90303655D01*
X182804788Y-90303656D01*
X182804789Y-90303657D01*
X182928844Y-90427712D01*
X182975544Y-90456516D01*
X183002635Y-90479127D01*
X183013089Y-90490749D01*
X183043282Y-90553719D01*
X183043380Y-90554320D01*
X183037188Y-90617582D01*
X183033771Y-90626750D01*
X183020682Y-90652333D01*
X182952415Y-90754503D01*
X182952415Y-90754504D01*
X182952413Y-90754506D01*
X182895841Y-90891088D01*
X182895838Y-90891098D01*
X182867000Y-91036076D01*
X182867000Y-91139551D01*
X182861737Y-91157471D01*
X182893450Y-91316893D01*
X182895840Y-91328907D01*
X182895843Y-91328917D01*
X182899566Y-91337905D01*
X182952408Y-91465481D01*
X182952413Y-91465490D01*
X182952423Y-91465507D01*
X183034549Y-91588417D01*
X183034550Y-91588418D01*
X183034555Y-91588424D01*
X183139074Y-91692943D01*
X183139080Y-91692948D01*
X183139084Y-91692951D01*
X183261998Y-91775080D01*
X183262011Y-91775087D01*
X183262013Y-91775087D01*
X183262017Y-91775090D01*
X183364439Y-91817513D01*
X183398582Y-91831656D01*
X183398587Y-91831658D01*
X183461189Y-91844110D01*
X183481864Y-91850130D01*
X183485555Y-91851563D01*
X183488062Y-91852725D01*
X183488720Y-91852791D01*
X183495659Y-91855485D01*
X183500464Y-91859183D01*
X183512137Y-91864491D01*
X183512581Y-91863699D01*
X183516688Y-91865996D01*
X183516694Y-91866000D01*
X183516700Y-91866002D01*
X183518871Y-91867217D01*
X183546023Y-91887759D01*
X183598784Y-91940520D01*
X183641036Y-91964914D01*
X183646935Y-91970050D01*
X183651437Y-91971632D01*
X183668176Y-91988543D01*
X183676865Y-91996108D01*
X183678717Y-91998487D01*
X183681590Y-92002568D01*
X183683261Y-92004321D01*
X183687074Y-92009216D01*
X183692741Y-92023565D01*
X183708104Y-92050075D01*
X183709423Y-92054512D01*
X183713922Y-92077240D01*
X183715000Y-92087796D01*
X183767316Y-92245672D01*
X183767316Y-92245673D01*
X183770185Y-92254333D01*
X183770186Y-92254334D01*
X183862288Y-92403656D01*
X183986344Y-92527712D01*
X184135666Y-92619814D01*
X184191437Y-92638294D01*
X184248881Y-92678067D01*
X184275704Y-92742583D01*
X184263389Y-92811358D01*
X184215846Y-92862558D01*
X184152432Y-92880000D01*
X182533083Y-92880000D01*
X182508889Y-92877617D01*
X182485509Y-92872965D01*
X182462252Y-92865910D01*
X182440234Y-92856790D01*
X182418797Y-92845332D01*
X182411103Y-92840191D01*
X182410993Y-92840117D01*
X182410662Y-92839897D01*
X182410551Y-92839823D01*
X182398965Y-92832081D01*
X182380178Y-92816662D01*
X182265265Y-92701749D01*
X182265249Y-92701733D01*
X182244961Y-92682536D01*
X182234764Y-92673408D01*
X182213440Y-92655356D01*
X182089450Y-92582364D01*
X182066187Y-92572821D01*
X182024808Y-92555848D01*
X181996901Y-92548827D01*
X181885281Y-92520745D01*
X181885277Y-92520745D01*
X181741513Y-92526372D01*
X181672788Y-92539015D01*
X181672785Y-92539015D01*
X181672784Y-92539016D01*
X181536427Y-92584921D01*
X181487472Y-92619161D01*
X181421254Y-92641453D01*
X181353496Y-92624406D01*
X181305710Y-92573433D01*
X181292828Y-92507289D01*
X181530530Y-89644062D01*
X181555694Y-89578883D01*
X181612102Y-89537654D01*
X181654452Y-89530323D01*
X181786352Y-89530696D01*
G37*
%TD.AperFunction*%
%TA.AperFunction,Conductor*%
G36*
X188120802Y-90649500D02*
G01*
X188124165Y-90651750D01*
X188142889Y-90667125D01*
X188191144Y-90715380D01*
X188225337Y-90749573D01*
X188225336Y-90749573D01*
X188225359Y-90749594D01*
X188505028Y-91029263D01*
X188526180Y-91057519D01*
X188533672Y-91071240D01*
X188548523Y-91139509D01*
X188548394Y-91141313D01*
X188529024Y-91199511D01*
X188520498Y-91212777D01*
X188514988Y-91220660D01*
X188426077Y-91337905D01*
X188410091Y-91378445D01*
X188410089Y-91378448D01*
X188410089Y-91378449D01*
X188392599Y-91409105D01*
X188380058Y-91425222D01*
X188331654Y-91462781D01*
X188324597Y-91465850D01*
X188299339Y-91473755D01*
X188235687Y-91486416D01*
X188235663Y-91486422D01*
X188235661Y-91486422D01*
X188108199Y-91539218D01*
X188108185Y-91539226D01*
X188037258Y-91586616D01*
X187978449Y-91607102D01*
X187958905Y-91608695D01*
X187958897Y-91608697D01*
X187819539Y-91644462D01*
X187755024Y-91671284D01*
X187719272Y-91692560D01*
X187655860Y-91710000D01*
X187009330Y-91710000D01*
X187009325Y-91709999D01*
X187009323Y-91710000D01*
X186974389Y-91704975D01*
X186959390Y-91700570D01*
X186900644Y-91662827D01*
X186900615Y-91662793D01*
X186900614Y-91662793D01*
X186900613Y-91662791D01*
X186899457Y-91661458D01*
X186871977Y-91606583D01*
X186870332Y-91599021D01*
X186867500Y-91572668D01*
X186867500Y-91351829D01*
X186870370Y-91331871D01*
X186872523Y-91316893D01*
X186876927Y-91301895D01*
X186914672Y-91243144D01*
X186914700Y-91243119D01*
X186914699Y-91243119D01*
X186916041Y-91241956D01*
X186970920Y-91214477D01*
X186978479Y-91212833D01*
X187004832Y-91210000D01*
X187954999Y-91210000D01*
X187954999Y-90935032D01*
X187954999Y-90935028D01*
X187954998Y-90935013D01*
X187944505Y-90832302D01*
X187934507Y-90802130D01*
X187933978Y-90799179D01*
X187933216Y-90797991D01*
X187933217Y-90794929D01*
X187928287Y-90767397D01*
X187927923Y-90756826D01*
X187933253Y-90736056D01*
X187933258Y-90728122D01*
X187936636Y-90722872D01*
X187945289Y-90689152D01*
X187996486Y-90641607D01*
X188065262Y-90629288D01*
X188120802Y-90649500D01*
G37*
%TD.AperFunction*%
%TD*%
%TA.AperFunction,Conductor*%
%TO.N,+48V*%
G36*
X121786508Y-88079685D02*
G01*
X121832263Y-88132489D01*
X121843306Y-88190359D01*
X121697505Y-91029608D01*
X121693228Y-91041818D01*
X121693600Y-91054751D01*
X121681899Y-91074160D01*
X121674408Y-91095550D01*
X121664207Y-91103510D01*
X121657529Y-91114590D01*
X121637195Y-91124591D01*
X121619327Y-91138537D01*
X121606442Y-91139719D01*
X121594834Y-91145429D01*
X121559554Y-91146443D01*
X121544512Y-91144719D01*
X121507484Y-91130909D01*
X121447874Y-91124500D01*
X121368019Y-91124500D01*
X121360984Y-91123694D01*
X121335058Y-91112742D01*
X121308059Y-91104815D01*
X121303307Y-91099331D01*
X121296621Y-91096507D01*
X121287417Y-91088181D01*
X121117615Y-90918379D01*
X121085522Y-90862793D01*
X121059579Y-90765974D01*
X120988170Y-90642288D01*
X120980526Y-90629048D01*
X120980520Y-90629040D01*
X120632356Y-90280876D01*
X120598871Y-90219553D01*
X120602330Y-90154194D01*
X120652499Y-90002797D01*
X120663000Y-89900009D01*
X120662999Y-89319728D01*
X120682683Y-89252690D01*
X120699313Y-89232053D01*
X121085297Y-88846069D01*
X121125524Y-88819191D01*
X121149179Y-88809394D01*
X121280289Y-88721789D01*
X121391789Y-88610289D01*
X121479394Y-88479179D01*
X121539737Y-88333497D01*
X121570500Y-88178842D01*
X121570500Y-88178835D01*
X121571097Y-88172782D01*
X121573718Y-88173040D01*
X121590185Y-88116961D01*
X121642989Y-88071206D01*
X121694500Y-88060000D01*
X121719469Y-88060000D01*
X121786508Y-88079685D01*
G37*
%TD.AperFunction*%
%TD*%
%TA.AperFunction,Conductor*%
%TO.N,Net-(U3-SW)*%
G36*
X188268577Y-92120065D02*
G01*
X188301309Y-92129093D01*
X188302018Y-92129885D01*
X188303039Y-92130185D01*
X188325265Y-92155835D01*
X188347929Y-92181135D01*
X188348345Y-92182471D01*
X188348794Y-92182989D01*
X188349457Y-92186041D01*
X188358430Y-92214830D01*
X188386516Y-92389647D01*
X188379442Y-92454803D01*
X188370123Y-92478436D01*
X188370122Y-92478437D01*
X188364206Y-92527710D01*
X188359500Y-92566898D01*
X188359500Y-92566903D01*
X188359500Y-92584902D01*
X188339815Y-92651941D01*
X188323181Y-92672583D01*
X186961981Y-94033782D01*
X186961979Y-94033785D01*
X186911861Y-94120594D01*
X186911859Y-94120596D01*
X186882925Y-94170709D01*
X186882924Y-94170710D01*
X186882923Y-94170715D01*
X186841999Y-94323443D01*
X186841999Y-94323445D01*
X186841999Y-94491546D01*
X186842000Y-94491559D01*
X186842000Y-94842698D01*
X186822315Y-94909737D01*
X186769511Y-94955492D01*
X186761334Y-94958879D01*
X186717575Y-94975200D01*
X186717564Y-94975206D01*
X186602355Y-95061452D01*
X186602352Y-95061455D01*
X186516106Y-95176664D01*
X186516102Y-95176671D01*
X186465808Y-95311517D01*
X186459401Y-95371116D01*
X186459401Y-95371123D01*
X186459400Y-95371135D01*
X186459400Y-98768870D01*
X186459401Y-98768876D01*
X186465808Y-98828483D01*
X186516102Y-98963328D01*
X186516106Y-98963335D01*
X186602352Y-99078544D01*
X186602355Y-99078547D01*
X186717564Y-99164793D01*
X186717571Y-99164797D01*
X186852417Y-99215091D01*
X186852416Y-99215091D01*
X186859344Y-99215835D01*
X186912027Y-99221500D01*
X187972972Y-99221499D01*
X188032583Y-99215091D01*
X188167431Y-99164796D01*
X188282646Y-99078546D01*
X188368896Y-98963331D01*
X188419191Y-98828483D01*
X188425600Y-98768873D01*
X188425600Y-98134500D01*
X188445285Y-98067461D01*
X188498089Y-98021706D01*
X188549600Y-98010500D01*
X189846442Y-98010500D01*
X189913481Y-98030185D01*
X189951979Y-98069401D01*
X190034788Y-98203656D01*
X190158844Y-98327712D01*
X190224253Y-98368056D01*
X190270977Y-98420004D01*
X190283138Y-98475730D01*
X190258392Y-99912635D01*
X190237556Y-99979326D01*
X190183972Y-100024165D01*
X190134410Y-100034500D01*
X189427498Y-100034500D01*
X189427480Y-100034501D01*
X189324703Y-100045000D01*
X189324700Y-100045001D01*
X189158168Y-100100185D01*
X189158163Y-100100187D01*
X189008842Y-100192289D01*
X188884789Y-100316342D01*
X188869520Y-100341098D01*
X188817572Y-100387822D01*
X188763982Y-100400000D01*
X182099240Y-100400000D01*
X182032201Y-100380315D01*
X181986446Y-100327511D01*
X181975335Y-100280851D01*
X181968262Y-100100185D01*
X181916140Y-98768844D01*
X183767500Y-98768844D01*
X183773901Y-98828372D01*
X183773903Y-98828379D01*
X183824145Y-98963086D01*
X183824149Y-98963093D01*
X183910309Y-99078187D01*
X183910312Y-99078190D01*
X184025406Y-99164350D01*
X184025413Y-99164354D01*
X184160120Y-99214596D01*
X184160127Y-99214598D01*
X184219655Y-99220999D01*
X184219672Y-99221000D01*
X184500100Y-99221000D01*
X185000100Y-99221000D01*
X185280528Y-99221000D01*
X185280544Y-99220999D01*
X185340072Y-99214598D01*
X185340079Y-99214596D01*
X185474786Y-99164354D01*
X185474793Y-99164350D01*
X185589887Y-99078190D01*
X185589890Y-99078187D01*
X185676050Y-98963093D01*
X185676054Y-98963086D01*
X185726296Y-98828379D01*
X185726298Y-98828372D01*
X185732699Y-98768844D01*
X185732700Y-98768827D01*
X185732700Y-97320000D01*
X185000100Y-97320000D01*
X185000100Y-99221000D01*
X184500100Y-99221000D01*
X184500100Y-97320000D01*
X183767500Y-97320000D01*
X183767500Y-98768844D01*
X181916140Y-98768844D01*
X181783121Y-95371155D01*
X183767500Y-95371155D01*
X183767500Y-96820000D01*
X184500100Y-96820000D01*
X185000100Y-96820000D01*
X185732700Y-96820000D01*
X185732700Y-95371172D01*
X185732699Y-95371155D01*
X185726298Y-95311627D01*
X185726296Y-95311620D01*
X185676054Y-95176913D01*
X185676050Y-95176906D01*
X185589890Y-95061812D01*
X185589887Y-95061809D01*
X185474793Y-94975649D01*
X185474786Y-94975645D01*
X185340079Y-94925403D01*
X185340072Y-94925401D01*
X185280544Y-94919000D01*
X185000100Y-94919000D01*
X185000100Y-96820000D01*
X184500100Y-96820000D01*
X184500100Y-94919000D01*
X184219655Y-94919000D01*
X184160127Y-94925401D01*
X184160120Y-94925403D01*
X184025413Y-94975645D01*
X184025406Y-94975649D01*
X183910312Y-95061809D01*
X183910309Y-95061812D01*
X183824149Y-95176906D01*
X183824145Y-95176913D01*
X183773903Y-95311620D01*
X183773901Y-95311627D01*
X183767500Y-95371155D01*
X181783121Y-95371155D01*
X181696230Y-93151714D01*
X181713277Y-93083958D01*
X181764250Y-93036172D01*
X181832967Y-93023531D01*
X181897610Y-93050047D01*
X181907807Y-93059175D01*
X181989152Y-93140520D01*
X182066584Y-93217952D01*
X182066585Y-93217953D01*
X182130258Y-93260497D01*
X182130260Y-93260498D01*
X182130263Y-93260500D01*
X182189505Y-93300084D01*
X182326087Y-93356658D01*
X182326091Y-93356658D01*
X182326092Y-93356659D01*
X182471079Y-93385500D01*
X182471082Y-93385500D01*
X182471083Y-93385500D01*
X182618917Y-93385500D01*
X184550148Y-93385500D01*
X184617187Y-93405185D01*
X184662942Y-93457989D01*
X184671765Y-93485308D01*
X184698340Y-93618906D01*
X184698342Y-93618912D01*
X184754916Y-93755494D01*
X184837048Y-93878416D01*
X184837052Y-93878420D01*
X184837052Y-93878421D01*
X184941578Y-93982947D01*
X184941581Y-93982949D01*
X184941584Y-93982952D01*
X185064506Y-94065084D01*
X185201088Y-94121658D01*
X185201092Y-94121658D01*
X185201093Y-94121659D01*
X185346080Y-94150500D01*
X185346083Y-94150500D01*
X185493919Y-94150500D01*
X185591461Y-94131096D01*
X185638912Y-94121658D01*
X185775494Y-94065084D01*
X185898416Y-93982952D01*
X187159549Y-92721817D01*
X187220872Y-92688333D01*
X187247230Y-92685499D01*
X187255002Y-92685499D01*
X187255008Y-92685499D01*
X187357797Y-92674999D01*
X187524334Y-92619814D01*
X187673656Y-92527712D01*
X187797712Y-92403656D01*
X187889814Y-92254334D01*
X187909311Y-92195493D01*
X187949084Y-92138051D01*
X188013600Y-92111228D01*
X188027017Y-92110500D01*
X188236000Y-92110500D01*
X188268577Y-92120065D01*
G37*
%TD.AperFunction*%
%TD*%
M02*
