%TF.GenerationSoftware,KiCad,Pcbnew,10.0.3*%
%TF.CreationDate,2026-06-12T10:26:54-05:00*%
%TF.ProjectId,power_distribution_board_pcb_v2,706f7765-725f-4646-9973-747269627574,rev?*%
%TF.SameCoordinates,Original*%
%TF.FileFunction,Soldermask,Bot*%
%TF.FilePolarity,Negative*%
%FSLAX46Y46*%
G04 Gerber Fmt 4.6, Leading zero omitted, Abs format (unit mm)*
G04 Created by KiCad (PCBNEW 10.0.3) date 2026-06-12 10:26:54*
%MOMM*%
%LPD*%
G01*
G04 APERTURE LIST*
G04 Aperture macros list*
%AMRoundRect*
0 Rectangle with rounded corners*
0 $1 Rounding radius*
0 $2 $3 $4 $5 $6 $7 $8 $9 X,Y pos of 4 corners*
0 Add a 4 corners polygon primitive as box body*
4,1,4,$2,$3,$4,$5,$6,$7,$8,$9,$2,$3,0*
0 Add four circle primitives for the rounded corners*
1,1,$1+$1,$2,$3*
1,1,$1+$1,$4,$5*
1,1,$1+$1,$6,$7*
1,1,$1+$1,$8,$9*
0 Add four rect primitives between the rounded corners*
20,1,$1+$1,$2,$3,$4,$5,0*
20,1,$1+$1,$4,$5,$6,$7,0*
20,1,$1+$1,$6,$7,$8,$9,0*
20,1,$1+$1,$8,$9,$2,$3,0*%
G04 Aperture macros list end*
%ADD10RoundRect,0.250000X1.050000X1.050000X-1.050000X1.050000X-1.050000X-1.050000X1.050000X-1.050000X0*%
%ADD11C,2.600000*%
%ADD12C,0.550000*%
%ADD13RoundRect,0.250000X-1.050000X-1.050000X1.050000X-1.050000X1.050000X1.050000X-1.050000X1.050000X0*%
%ADD14C,3.200000*%
%ADD15RoundRect,0.250000X-1.050000X1.050000X-1.050000X-1.050000X1.050000X-1.050000X1.050000X1.050000X0*%
G04 APERTURE END LIST*
D10*
%TO.C,ESC_Connector4*%
X114000000Y-73000000D03*
D11*
X108920000Y-73000000D03*
%TD*%
D12*
%TO.C,U2*%
X155375000Y-92200000D03*
X157600000Y-95516000D03*
X157600000Y-96599999D03*
X156287000Y-95516000D03*
X156287000Y-96599999D03*
X154974999Y-95516000D03*
X154974999Y-96599999D03*
X154149999Y-92200000D03*
X154149999Y-93107999D03*
X154416001Y-94016001D03*
X155375000Y-94016001D03*
X155375000Y-93107999D03*
%TD*%
D13*
%TO.C,5V_Connector1*%
X188500000Y-115000000D03*
D11*
X193580000Y-115000000D03*
%TD*%
D10*
%TO.C,ESC_Connector3*%
X143800000Y-73000000D03*
D11*
X138720000Y-73000000D03*
%TD*%
D14*
%TO.C,REF\u002A\u002A*%
X213000000Y-72400000D03*
%TD*%
D13*
%TO.C,3.3V_Connector1*%
X200500000Y-115000000D03*
D11*
X205580000Y-115000000D03*
%TD*%
D13*
%TO.C,12V_Connector1*%
X176500000Y-115000000D03*
D11*
X181580000Y-115000000D03*
%TD*%
D14*
%TO.C,REF\u002A\u002A*%
X97000000Y-115880000D03*
%TD*%
%TO.C,REF\u002A\u002A*%
X97000000Y-72400000D03*
%TD*%
D10*
%TO.C,ESC_Connector2*%
X173670000Y-73000000D03*
D11*
X168590000Y-73000000D03*
%TD*%
D12*
%TO.C,U1*%
X125350000Y-92766000D03*
X125350000Y-93849999D03*
X124037000Y-92766000D03*
X124037000Y-93849999D03*
X122724999Y-92766000D03*
X122724999Y-93849999D03*
X121899999Y-89450000D03*
X121899999Y-90357999D03*
X122166001Y-91266001D03*
X123125000Y-91266001D03*
X123125000Y-90357999D03*
X123125000Y-89450000D03*
%TD*%
D14*
%TO.C,REF\u002A\u002A*%
X213000000Y-115880000D03*
%TD*%
D10*
%TO.C,ESC_Connector1*%
X202880000Y-73000000D03*
D11*
X197800000Y-73000000D03*
%TD*%
D15*
%TO.C,Tether_Connector1*%
X99000000Y-94500000D03*
D11*
X99000000Y-99580000D03*
%TD*%
M02*
