%TF.GenerationSoftware,KiCad,Pcbnew,10.0.3*%
%TF.CreationDate,2026-06-12T10:26:54-05:00*%
%TF.ProjectId,power_distribution_board_pcb_v2,706f7765-725f-4646-9973-747269627574,rev?*%
%TF.SameCoordinates,Original*%
%TF.FileFunction,Paste,Top*%
%TF.FilePolarity,Positive*%
%FSLAX46Y46*%
G04 Gerber Fmt 4.6, Leading zero omitted, Abs format (unit mm)*
G04 Created by KiCad (PCBNEW 10.0.3) date 2026-06-12 10:26:54*
%MOMM*%
%LPD*%
G01*
G04 APERTURE LIST*
G04 Aperture macros list*
%AMRoundRect*
0 Rectangle with rounded corners*
0 $1 Rounding radius*
0 $2 $3 $4 $5 $6 $7 $8 $9 X,Y pos of 4 corners*
0 Add a 4 corners polygon primitive as box body*
4,1,4,$2,$3,$4,$5,$6,$7,$8,$9,$2,$3,0*
0 Add four circle primitives for the rounded corners*
1,1,$1+$1,$2,$3*
1,1,$1+$1,$4,$5*
1,1,$1+$1,$6,$7*
1,1,$1+$1,$8,$9*
0 Add four rect primitives between the rounded corners*
20,1,$1+$1,$2,$3,$4,$5,0*
20,1,$1+$1,$4,$5,$6,$7,0*
20,1,$1+$1,$6,$7,$8,$9,0*
20,1,$1+$1,$8,$9,$2,$3,0*%
%AMFreePoly0*
4,1,17,2.461001,1.019998,2.511003,0.970000,2.511001,-1.716002,2.391001,-1.836004,1.032002,-1.836001,0.912002,-1.716002,0.912000,-1.609002,0.862002,-1.559002,0.766001,-1.559002,0.646001,-1.439002,0.646001,-0.745000,0.596001,-0.695000,-0.083998,-0.695000,-0.204000,-0.575003,-0.204000,0.969998,-0.154000,1.020000,2.461001,1.019998,2.461001,1.019998,$1*%
%AMFreePoly1*
4,1,9,0.216000,1.304501,0.216000,-0.564502,0.100501,-0.680001,-3.133504,-0.680001,-3.249002,-0.564502,-3.249002,1.304501,-3.133504,1.420000,0.100501,1.420000,0.216000,1.304501,0.216000,1.304501,$1*%
G04 Aperture macros list end*
%ADD10C,0.000000*%
%ADD11RoundRect,0.250000X-0.350000X-0.450000X0.350000X-0.450000X0.350000X0.450000X-0.350000X0.450000X0*%
%ADD12RoundRect,0.250000X-0.412500X-1.100000X0.412500X-1.100000X0.412500X1.100000X-0.412500X1.100000X0*%
%ADD13RoundRect,0.250000X-0.337500X-0.475000X0.337500X-0.475000X0.337500X0.475000X-0.337500X0.475000X0*%
%ADD14RoundRect,0.250000X0.350000X0.450000X-0.350000X0.450000X-0.350000X-0.450000X0.350000X-0.450000X0*%
%ADD15RoundRect,0.250000X0.412500X1.100000X-0.412500X1.100000X-0.412500X-1.100000X0.412500X-1.100000X0*%
%ADD16FreePoly0,0.000000*%
%ADD17R,0.267000X0.249999*%
%ADD18R,0.599999X0.249999*%
%ADD19R,0.249999X0.599999*%
%ADD20FreePoly1,0.000000*%
%ADD21R,0.292999X0.249999*%
%ADD22R,0.249999X0.258000*%
%ADD23R,0.965200X3.302000*%
%ADD24RoundRect,0.250000X-0.450000X0.350000X-0.450000X-0.350000X0.450000X-0.350000X0.450000X0.350000X0*%
%ADD25RoundRect,0.250000X0.337500X0.475000X-0.337500X0.475000X-0.337500X-0.475000X0.337500X-0.475000X0*%
%ADD26RoundRect,0.250000X0.450000X-0.350000X0.450000X0.350000X-0.450000X0.350000X-0.450000X-0.350000X0*%
%ADD27RoundRect,0.237500X-0.287500X-0.237500X0.287500X-0.237500X0.287500X0.237500X-0.287500X0.237500X0*%
%ADD28RoundRect,0.050000X-0.275000X-0.050000X0.275000X-0.050000X0.275000X0.050000X-0.275000X0.050000X0*%
%ADD29RoundRect,0.050000X-0.450000X-0.050000X0.450000X-0.050000X0.450000X0.050000X-0.450000X0.050000X0*%
%ADD30RoundRect,0.062500X-0.062500X-0.212500X0.062500X-0.212500X0.062500X0.212500X-0.062500X0.212500X0*%
G04 APERTURE END LIST*
D10*
%TO.C,U2*%
G36*
X153838001Y-92158001D02*
G01*
X153838001Y-92958000D01*
X153788001Y-93007999D01*
X153567999Y-93007999D01*
X153517999Y-92958000D01*
X153517999Y-92158001D01*
X153567999Y-92108001D01*
X153788001Y-92108001D01*
X153838001Y-92158001D01*
G37*
G36*
X155536999Y-92158001D02*
G01*
X155536999Y-92958000D01*
X155486999Y-93007999D01*
X154087000Y-93007999D01*
X154037000Y-92958000D01*
X154037000Y-92158001D01*
X154087000Y-92108001D01*
X155486999Y-92108001D01*
X155536999Y-92158001D01*
G37*
G36*
X156187000Y-95398000D02*
G01*
X156187000Y-96718000D01*
X156137000Y-96768000D01*
X154887000Y-96768000D01*
X154837001Y-96718000D01*
X154837001Y-95398000D01*
X154887000Y-95348000D01*
X156137000Y-95348000D01*
X156187000Y-95398000D01*
G37*
G36*
X155486999Y-93208002D02*
G01*
X155536999Y-93257999D01*
X155536999Y-94158000D01*
X155486999Y-94208002D01*
X154336999Y-94208000D01*
X154037000Y-93908000D01*
X154037000Y-93258001D01*
X154087000Y-93207999D01*
X155486999Y-93208002D01*
G37*
G36*
X157487000Y-92829999D02*
G01*
X157487000Y-94480001D01*
X157437000Y-94530000D01*
X156267000Y-94530000D01*
X156217000Y-94480001D01*
X156217000Y-92829999D01*
X156267000Y-92779999D01*
X157437000Y-92779999D01*
X157487000Y-92829999D01*
G37*
G36*
X157737000Y-95398000D02*
G01*
X157737000Y-96718000D01*
X157687000Y-96768000D01*
X156437000Y-96768000D01*
X156387000Y-96718000D01*
X156387000Y-95398000D01*
X156437000Y-95348000D01*
X157687000Y-95348000D01*
X157737000Y-95398000D01*
G37*
G36*
X158957000Y-92829999D02*
G01*
X158957000Y-94480001D01*
X158907000Y-94530000D01*
X157737000Y-94530000D01*
X157687000Y-94480001D01*
X157687000Y-92829999D01*
X157737000Y-92779999D01*
X158907000Y-92779999D01*
X158957000Y-92829999D01*
G37*
%TO.C,U1*%
G36*
X121588001Y-89408001D02*
G01*
X121588001Y-90208000D01*
X121538001Y-90257999D01*
X121317999Y-90257999D01*
X121267999Y-90208000D01*
X121267999Y-89408001D01*
X121317999Y-89358001D01*
X121538001Y-89358001D01*
X121588001Y-89408001D01*
G37*
G36*
X123286999Y-89408001D02*
G01*
X123286999Y-90208000D01*
X123236999Y-90257999D01*
X121837000Y-90257999D01*
X121787000Y-90208000D01*
X121787000Y-89408001D01*
X121837000Y-89358001D01*
X123236999Y-89358001D01*
X123286999Y-89408001D01*
G37*
G36*
X123937000Y-92648000D02*
G01*
X123937000Y-93968000D01*
X123887000Y-94018000D01*
X122637000Y-94018000D01*
X122587001Y-93968000D01*
X122587001Y-92648000D01*
X122637000Y-92598000D01*
X123887000Y-92598000D01*
X123937000Y-92648000D01*
G37*
G36*
X123236999Y-90458002D02*
G01*
X123286999Y-90507999D01*
X123286999Y-91408000D01*
X123236999Y-91458002D01*
X122086999Y-91458000D01*
X121787000Y-91158000D01*
X121787000Y-90508001D01*
X121837000Y-90457999D01*
X123236999Y-90458002D01*
G37*
G36*
X125237000Y-90079999D02*
G01*
X125237000Y-91730001D01*
X125187000Y-91780000D01*
X124017000Y-91780000D01*
X123967000Y-91730001D01*
X123967000Y-90079999D01*
X124017000Y-90029999D01*
X125187000Y-90029999D01*
X125237000Y-90079999D01*
G37*
G36*
X125487000Y-92648000D02*
G01*
X125487000Y-93968000D01*
X125437000Y-94018000D01*
X124187000Y-94018000D01*
X124137000Y-93968000D01*
X124137000Y-92648000D01*
X124187000Y-92598000D01*
X125437000Y-92598000D01*
X125487000Y-92648000D01*
G37*
G36*
X126707000Y-90079999D02*
G01*
X126707000Y-91730001D01*
X126657000Y-91780000D01*
X125487000Y-91780000D01*
X125437000Y-91730001D01*
X125437000Y-90079999D01*
X125487000Y-90029999D01*
X126657000Y-90029999D01*
X126707000Y-90079999D01*
G37*
%TD*%
D11*
%TO.C,REN4*%
X144560000Y-94920000D03*
X146560000Y-94920000D03*
%TD*%
D12*
%TO.C,CF2*%
X194940000Y-101890000D03*
X198065000Y-101890000D03*
%TD*%
D13*
%TO.C,CCOMP2*%
X159812500Y-103650000D03*
X161887500Y-103650000D03*
%TD*%
D14*
%TO.C,R4*%
X161920000Y-101420000D03*
X159920000Y-101420000D03*
%TD*%
D13*
%TO.C,CVDDA1*%
X128712500Y-94150000D03*
X130787500Y-94150000D03*
%TD*%
%TO.C,COUT11*%
X198765000Y-97260000D03*
X200840000Y-97260000D03*
%TD*%
%TO.C,CBOOT1*%
X117540000Y-91710000D03*
X119615000Y-91710000D03*
%TD*%
D15*
%TO.C,CIN4*%
X131500000Y-88500000D03*
X128375000Y-88500000D03*
%TD*%
D11*
%TO.C,R7*%
X189485000Y-89340000D03*
X191485000Y-89340000D03*
%TD*%
D12*
%TO.C,COUT2*%
X112398800Y-109560000D03*
X115523800Y-109560000D03*
%TD*%
D16*
%TO.C,U2*%
X153183999Y-92499999D03*
D17*
X153183999Y-93000001D03*
D18*
X153350001Y-93500000D03*
X153350001Y-94500000D03*
X153350001Y-95000000D03*
X153350001Y-96000000D03*
X153350001Y-96499999D03*
X153350001Y-97000001D03*
D19*
X154249999Y-97649999D03*
X154750000Y-97649999D03*
X155249999Y-97649999D03*
X156250000Y-97649999D03*
X156749999Y-97649999D03*
X157250001Y-97649999D03*
X157750000Y-97649999D03*
X158250001Y-97649999D03*
D18*
X159149999Y-96499999D03*
X159149999Y-96000000D03*
X159149999Y-95500001D03*
D20*
X159303999Y-93999999D03*
D21*
X159303999Y-93500000D03*
X159303999Y-93000001D03*
D19*
X158250001Y-91850001D03*
X157750000Y-91850001D03*
X157250001Y-91850001D03*
X156749999Y-91850001D03*
D22*
X155249999Y-91679000D03*
X154750000Y-91679000D03*
X154249999Y-91679000D03*
%TD*%
D12*
%TO.C,CIN3*%
X124375000Y-84500000D03*
X127500000Y-84500000D03*
%TD*%
D15*
%TO.C,COUT6*%
X146950000Y-111500000D03*
X143825000Y-111500000D03*
%TD*%
D23*
%TO.C,Lo1*%
X113357600Y-98500000D03*
X116050000Y-98500000D03*
%TD*%
D13*
%TO.C,C_NR/SS1*%
X193665000Y-89290000D03*
X195740000Y-89290000D03*
%TD*%
D11*
%TO.C,R1*%
X118750000Y-96900000D03*
X120750000Y-96900000D03*
%TD*%
D24*
%TO.C,RRT2*%
X156430000Y-101880000D03*
X156430000Y-103880000D03*
%TD*%
D13*
%TO.C,CBOOT2*%
X149750000Y-94720000D03*
X151825000Y-94720000D03*
%TD*%
%TO.C,CVCC2*%
X160550000Y-94850000D03*
X162625000Y-94850000D03*
%TD*%
D24*
%TO.C,RCNFG1*%
X130800000Y-105987500D03*
X130800000Y-107987500D03*
%TD*%
D12*
%TO.C,COUT8*%
X153125000Y-108110000D03*
X156250000Y-108110000D03*
%TD*%
D11*
%TO.C,R8*%
X189465000Y-87260000D03*
X191465000Y-87260000D03*
%TD*%
D12*
%TO.C,CF1*%
X189890000Y-101885000D03*
X193015000Y-101885000D03*
%TD*%
D11*
%TO.C,R5*%
X185660000Y-87260000D03*
X187660000Y-87260000D03*
%TD*%
D23*
%TO.C,L1*%
X184750100Y-97070000D03*
X187442500Y-97070000D03*
%TD*%
D12*
%TO.C,COUT7*%
X153125000Y-111400000D03*
X156250000Y-111400000D03*
%TD*%
D11*
%TO.C,RS1*%
X117053800Y-103450000D03*
X119053800Y-103450000D03*
%TD*%
%TO.C,REN3*%
X144510000Y-92180000D03*
X146510000Y-92180000D03*
%TD*%
D13*
%TO.C,CHF1*%
X131875000Y-98720000D03*
X133950000Y-98720000D03*
%TD*%
D15*
%TO.C,CIN6*%
X160875000Y-87500000D03*
X157750000Y-87500000D03*
%TD*%
D13*
%TO.C,CVDDA2*%
X160525000Y-96950000D03*
X162600000Y-96950000D03*
%TD*%
D12*
%TO.C,COUT3*%
X120561300Y-109560000D03*
X123686300Y-109560000D03*
%TD*%
%TO.C,CIN5*%
X160875000Y-91500000D03*
X164000000Y-91500000D03*
%TD*%
%TO.C,COUT1*%
X112398800Y-106060000D03*
X115523800Y-106060000D03*
%TD*%
D11*
%TO.C,R6*%
X193675000Y-91460000D03*
X195675000Y-91460000D03*
%TD*%
D24*
%TO.C,RRT1*%
X133150000Y-105987500D03*
X133150000Y-107987500D03*
%TD*%
D13*
%TO.C,CVCC1*%
X128725000Y-91800000D03*
X130800000Y-91800000D03*
%TD*%
%TO.C,CCOMP1*%
X131875000Y-96520000D03*
X133950000Y-96520000D03*
%TD*%
D25*
%TO.C,C1*%
X186867500Y-91460000D03*
X184792500Y-91460000D03*
%TD*%
D11*
%TO.C,RBOOT2*%
X149860000Y-96890000D03*
X151860000Y-96890000D03*
%TD*%
D12*
%TO.C,COUT4*%
X120523800Y-106060000D03*
X123648800Y-106060000D03*
%TD*%
D11*
%TO.C,RCOMP2*%
X164050000Y-103550000D03*
X166050000Y-103550000D03*
%TD*%
D13*
%TO.C,COUT9*%
X190965000Y-97260000D03*
X193040000Y-97260000D03*
%TD*%
%TO.C,C_IN-HF1*%
X122175000Y-87500000D03*
X124250000Y-87500000D03*
%TD*%
D16*
%TO.C,U1*%
X120933999Y-89749999D03*
D17*
X120933999Y-90250001D03*
D18*
X121100001Y-90750000D03*
X121100001Y-91750000D03*
X121100001Y-92250000D03*
X121100001Y-93250000D03*
X121100001Y-93749999D03*
X121100001Y-94250001D03*
D19*
X121999999Y-94899999D03*
X122500000Y-94899999D03*
X122999999Y-94899999D03*
X124000000Y-94899999D03*
X124499999Y-94899999D03*
X125000001Y-94899999D03*
X125500000Y-94899999D03*
X126000001Y-94899999D03*
D18*
X126899999Y-93749999D03*
X126899999Y-93250000D03*
X126899999Y-92750001D03*
D20*
X127053999Y-91249999D03*
D21*
X127053999Y-90750000D03*
X127053999Y-90250001D03*
D19*
X126000001Y-89100001D03*
X125500000Y-89100001D03*
X125000001Y-89100001D03*
X124499999Y-89100001D03*
D22*
X122999999Y-88929000D03*
X122500000Y-88929000D03*
X121999999Y-88929000D03*
%TD*%
D13*
%TO.C,COUT10*%
X194865000Y-97260000D03*
X196940000Y-97260000D03*
%TD*%
D15*
%TO.C,CIN8*%
X152000000Y-91500000D03*
X148875000Y-91500000D03*
%TD*%
D11*
%TO.C,RCOMP1*%
X135800000Y-96500000D03*
X137800000Y-96500000D03*
%TD*%
D13*
%TO.C,C_IN-HF2*%
X156500000Y-90500000D03*
X158575000Y-90500000D03*
%TD*%
D26*
%TO.C,REN2*%
X109890000Y-89910000D03*
X109890000Y-87910000D03*
%TD*%
D11*
%TO.C,RS2*%
X149110000Y-106060000D03*
X151110000Y-106060000D03*
%TD*%
%TO.C,R2*%
X119430000Y-100340000D03*
X121430000Y-100340000D03*
%TD*%
%TO.C,RBOOT1*%
X117590000Y-93710000D03*
X119590000Y-93710000D03*
%TD*%
D26*
%TO.C,REN1*%
X111950000Y-89910000D03*
X111950000Y-87910000D03*
%TD*%
D13*
%TO.C,CHF2*%
X159875000Y-105850000D03*
X161950000Y-105850000D03*
%TD*%
D23*
%TO.C,Lo2*%
X148380000Y-100960000D03*
X151072400Y-100960000D03*
%TD*%
D15*
%TO.C,CIN1*%
X119500000Y-88750000D03*
X116375000Y-88750000D03*
%TD*%
D27*
%TO.C,FB1*%
X194915000Y-99135000D03*
X196665000Y-99135000D03*
%TD*%
D15*
%TO.C,COUT5*%
X146960000Y-108150000D03*
X143835000Y-108150000D03*
%TD*%
D13*
%TO.C,CIN9*%
X181660000Y-89360000D03*
X183735000Y-89360000D03*
%TD*%
D15*
%TO.C,CIN2*%
X122250000Y-84500000D03*
X119125000Y-84500000D03*
%TD*%
D13*
%TO.C,CIN10*%
X185560000Y-89360000D03*
X187635000Y-89360000D03*
%TD*%
D28*
%TO.C,U3*%
X189185000Y-91660000D03*
D29*
X189360000Y-92160000D03*
D28*
X189185000Y-92660000D03*
D29*
X190760000Y-92660000D03*
D28*
X190935000Y-92160000D03*
D29*
X190760000Y-91660000D03*
D30*
X190810000Y-90985000D03*
X190310000Y-90985000D03*
X189810000Y-90985000D03*
X189310000Y-90985000D03*
%TD*%
D15*
%TO.C,CIN7*%
X155875000Y-87500000D03*
X152750000Y-87500000D03*
%TD*%
D11*
%TO.C,R3*%
X159950000Y-99250000D03*
X161950000Y-99250000D03*
%TD*%
D24*
%TO.C,RCNFG2*%
X154030000Y-101880000D03*
X154030000Y-103880000D03*
%TD*%
M02*
